ISO-10303-21;
HEADER;
FILE_DESCRIPTION (( 'STEP AP203' ),
    '1' );
FILE_NAME ('°Ú¸ËÖ§³Å×ªÖá×ù.STEP',
    '2026-07-29T11:02:25',
    ( '' ),
    ( '' ),
    'SwSTEP 2.0',
    'SolidWorks 2024',
    '' );
FILE_SCHEMA (( 'CONFIG_CONTROL_DESIGN' ));
ENDSEC;

DATA;
#1 = VERTEX_POINT ( 'NONE', #57 ) ;
#2 = LINE ( 'NONE', #289, #340 ) ;
#3 = LINE ( 'NONE', #410, #7 ) ;
#4 = CARTESIAN_POINT ( 'NONE',  ( -2.099999999917547822, -12.00000000000000000, 9.000000000000001776 ) ) ;
#5 = APPROVAL ( #460, 'æœª' ) ;
#6 = ORIENTED_EDGE ( 'NONE', *, *, #558, .T. ) ;
#7 = VECTOR ( 'NONE', #179, 1000.000000000000000 ) ;
#8 = CYLINDRICAL_SURFACE ( 'NONE', #433, 4.000000000000000000 ) ;
#9 = FACE_OUTER_BOUND ( 'NONE', #709, .T. ) ;
#10 = ADVANCED_FACE ( 'NONE', ( #301 ), #416, .F. ) ;
#11 = CARTESIAN_POINT ( 'NONE',  ( 12.00000000000000178, 0.000000000000000000, 9.000000000000001776 ) ) ;
#12 = CARTESIAN_POINT ( 'NONE',  ( -7.574999999986725463, -9.306953045986706030, 9.000000000000001776 ) ) ;
#13 = DIRECTION ( 'NONE',  ( 1.000000000000000000, 0.000000000000000000, 0.000000000000000000 ) ) ;
#14 = PLANE ( 'NONE',  #288 ) ;
#15 = CARTESIAN_POINT ( 'NONE',  ( -12.00000000000000711, 0.000000000000000000, 0.000000000000000000 ) ) ;
#16 = DIRECTION ( 'NONE',  ( -1.000000000000000000, -8.710291402301344133E-12, -0.000000000000000000 ) ) ;
#17 = SECURITY_CLASSIFICATION ( '', '', #23 ) ;
#18 = DIRECTION ( 'NONE',  ( -1.000000000000000000, -8.710291402301344133E-12, -0.000000000000000000 ) ) ;
#19 = VERTEX_POINT ( 'NONE', #426 ) ;
#20 = PERSON_AND_ORGANIZATION ( #120, #469 ) ;
#21 = EDGE_CURVE ( 'NONE', #141, #188, #616, .T. ) ;
#22 = CARTESIAN_POINT ( 'NONE',  ( 12.00000000013938539, -15.99999999984234478, 4.500000000000000888 ) ) ;
#23 = SECURITY_CLASSIFICATION_LEVEL ( 'unclassified' ) ;
#24 = ORIENTED_EDGE ( 'NONE', *, *, #376, .F. ) ;
#25 = AXIS2_PLACEMENT_3D ( 'NONE', #379, #69, #314 ) ;
#26 = VECTOR ( 'NONE', #658, 1000.000000000000000 ) ;
#27 = ORIENTED_EDGE ( 'NONE', *, *, #420, .T. ) ;
#28 = CARTESIAN_POINT ( 'NONE',  ( 6.099999999951697838, -15.99999999989373478, 4.500000000000000888 ) ) ;
#29 = VERTEX_POINT ( 'NONE', #668 ) ;
#30 = DIRECTION ( 'NONE',  ( -1.000000000000000000, 8.673617379884035472E-16, 0.000000000000000000 ) ) ;
#31 = EDGE_CURVE ( 'NONE', #150, #697, #496, .T. ) ;
#32 = EDGE_LOOP ( 'NONE', ( #220, #94, #98, #6 ) ) ;
#33 = ORIENTED_EDGE ( 'NONE', *, *, #523, .T. ) ;
#34 = EDGE_CURVE ( 'NONE', #334, #324, #557, .T. ) ;
#35 = CARTESIAN_POINT ( 'NONE',  ( 10.15000000000171276, 0.000000000000000000, 9.000000000000001776 ) ) ;
#36 = EDGE_LOOP ( 'NONE', ( #387, #643, #695, #27 ) ) ;
#37 = EDGE_LOOP ( 'NONE', ( #158, #569 ) ) ;
#38 = ORIENTED_EDGE ( 'NONE', *, *, #687, .T. ) ;
#39 = ADVANCED_FACE ( 'NONE', ( #735, #246 ), #381, .F. ) ;
#40 = VECTOR ( 'NONE', #313, 1000.000000000000000 ) ;
#41 = ORIENTED_EDGE ( 'NONE', *, *, #667, .T. ) ;
#42 = DIRECTION ( 'NONE',  ( 0.000000000000000000, 0.000000000000000000, -1.000000000000000000 ) ) ;
#43 = ORIENTED_EDGE ( 'NONE', *, *, #364, .F. ) ;
#44 = CARTESIAN_POINT ( 'NONE',  ( -2.099999999917547822, 0.000000000000000000, -2.000000000000000000 ) ) ;
#45 = LINE ( 'NONE', #174, #574 ) ;
#46 = CIRCLE ( 'NONE', #716, 1.399999999999999245 ) ;
#47 = CIRCLE ( 'NONE', #365, 1.399999999999998579 ) ;
#48 = APPROVAL_PERSON_ORGANIZATION ( #173, #5, #706 ) ;
#49 = EDGE_CURVE ( 'NONE', #510, #324, #319, .T. ) ;
#50 = DIRECTION ( 'NONE',  ( 0.000000000000000000, 0.000000000000000000, -1.000000000000000000 ) ) ;
#51 = DIRECTION ( 'NONE',  ( 1.000000000000000000, 8.673617379884035472E-16, -0.000000000000000000 ) ) ;
#52 = ORIENTED_EDGE ( 'NONE', *, *, #31, .T. ) ;
#53 = EDGE_CURVE ( 'NONE', #391, #564, #437, .T. ) ;
#54 = CARTESIAN_POINT ( 'NONE',  ( 2.099999999917547822, -20.00000000000000000, 9.000000000000001776 ) ) ;
#55 = LINE ( 'NONE', #531, #649 ) ;
#56 = DIRECTION ( 'NONE',  ( -0.000000000000000000, -0.000000000000000000, -1.000000000000000000 ) ) ;
#57 = CARTESIAN_POINT ( 'NONE',  ( -10.15000000000000036, 0.000000000000000000, 0.000000000000000000 ) ) ;
#58 = FACE_BOUND ( 'NONE', #475, .T. ) ;
#59 = CARTESIAN_POINT ( 'NONE',  ( -2.099999999917547822, -14.59999999996516173, 4.500000000000000888 ) ) ;
#60 = CARTESIAN_POINT ( 'NONE',  ( 6.099999999917548266, -19.99999999999999645, 9.000000000000001776 ) ) ;
#61 = ADVANCED_FACE ( 'NONE', ( #432 ), #550, .T. ) ;
#62 = ORIENTED_EDGE ( 'NONE', *, *, #137, .T. ) ;
#63 = CIRCLE ( 'NONE', #385, 1.399999999999998579 ) ;
#64 = LOCAL_TIME ( 19, 2, 25.00000000000000000, #163 ) ;
#65 = CARTESIAN_POINT ( 'NONE',  ( -6.099999999982298249, -12.40927072794815089, -2.000000000000000000 ) ) ;
#66 = DIRECTION ( 'NONE',  ( 1.000000000000000000, 0.000000000000000000, 0.000000000000000000 ) ) ;
#67 = CARTESIAN_POINT ( 'NONE',  ( 2.099999999917547822, -12.00000000000000000, 9.000000000000001776 ) ) ;
#68 = ADVANCED_FACE ( 'NONE', ( #664 ), #82, .F. ) ;
#69 = DIRECTION ( 'NONE',  ( -0.000000000000000000, -0.000000000000000000, -1.000000000000000000 ) ) ;
#70 = DIRECTION ( 'NONE',  ( 0.000000000000000000, 0.000000000000000000, -1.000000000000000000 ) ) ;
#71 = CARTESIAN_POINT ( 'NONE',  ( 10.15000000000342339, 0.000000000000000000, 0.000000000000000000 ) ) ;
#72 = CIRCLE ( 'NONE', #509, 1.399999999999998579 ) ;
#73 = VECTOR ( 'NONE', #588, 1000.000000000000000 ) ;
#74 = DIRECTION ( 'NONE',  ( 0.000000000000000000, 0.000000000000000000, -1.000000000000000000 ) ) ;
#75 = EDGE_CURVE ( 'NONE', #556, #240, #261, .T. ) ;
#76 = DIRECTION ( 'NONE',  ( -1.000000000000000000, -8.710291402301344133E-12, -0.000000000000000000 ) ) ;
#77 = CARTESIAN_POINT ( 'NONE',  ( 10.15000000000342339, 0.000000000000000000, 9.000000000000001776 ) ) ;
#78 = APPROVAL_DATE_TIME ( #427, #5 ) ;
#79 = PLANE ( 'NONE',  #483 ) ;
#80 = CC_DESIGN_PERSON_AND_ORGANIZATION_ASSIGNMENT ( #93, #211, ( #491 ) ) ;
#81 = ORIENTED_EDGE ( 'NONE', *, *, #208, .T. ) ;
#82 = CYLINDRICAL_SURFACE ( 'NONE', #548, 1.399999999999998579 ) ;
#83 = APPLICATION_CONTEXT ( 'configuration controlled 3d designs of mechanical parts and assemblies' ) ;
#84 = DIRECTION ( 'NONE',  ( -1.000000000000000000, 8.537425521522375736E-12, 0.000000000000000000 ) ) ;
#85 = VERTEX_POINT ( 'NONE', #12 ) ;
#86 = CARTESIAN_POINT ( 'NONE',  ( 0.000000000000000000, -12.00000000000000000, -2.000000000000000000 ) ) ;
#87 = EDGE_CURVE ( 'NONE', #756, #207, #481, .T. ) ;
#88 = CALENDAR_DATE ( 2026, 29, 7 ) ;
#89 = AXIS2_PLACEMENT_3D ( 'NONE', #744, #563, #268 ) ;
#90 = CARTESIAN_POINT ( 'NONE',  ( 2.099999999917547822, -20.00000000000000000, -2.000000000000000000 ) ) ;
#91 = AXIS2_PLACEMENT_3D ( 'NONE', #266, #377, #553 ) ;
#92 = CARTESIAN_POINT ( 'NONE',  ( 6.099999999917548266, -19.99999999999999645, 9.000000000000001776 ) ) ;
#93 = PERSON_AND_ORGANIZATION ( #120, #469 ) ;
#94 = ORIENTED_EDGE ( 'NONE', *, *, #420, .F. ) ;
#95 = ORIENTED_EDGE ( 'NONE', *, *, #600, .F. ) ;
#96 = ORIENTED_EDGE ( 'NONE', *, *, #149, .T. ) ;
#97 = VERTEX_POINT ( 'NONE', #15 ) ;
#98 = ORIENTED_EDGE ( 'NONE', *, *, #21, .F. ) ;
#99 = ORIENTED_EDGE ( 'NONE', *, *, #498, .T. ) ;
#100 = EDGE_CURVE ( 'NONE', #85, #510, #191, .T. ) ;
#101 = CARTESIAN_POINT ( 'NONE',  ( 0.000000000000000000, 0.000000000000000000, -2.000000000000000000 ) ) ;
#102 = AXIS2_PLACEMENT_3D ( 'NONE', #671, #620, #633 ) ;
#103 = CIRCLE ( 'NONE', #423, 1.399999999999999245 ) ;
#104 = ORIENTED_EDGE ( 'NONE', *, *, #218, .T. ) ;
#105 = ORIENTED_EDGE ( 'NONE', *, *, #239, .T. ) ;
#106 = CARTESIAN_POINT ( 'NONE',  ( -2.099999999917547822, -20.00000000000000000, 9.000000000000001776 ) ) ;
#107 = ORIENTED_EDGE ( 'NONE', *, *, #197, .T. ) ;
#108 = ORIENTED_EDGE ( 'NONE', *, *, #547, .T. ) ;
#109 = EDGE_CURVE ( 'NONE', #446, #571, #63, .T. ) ;
#110 = DIRECTION ( 'NONE',  ( -1.000000000000000000, 0.000000000000000000, -0.000000000000000000 ) ) ;
#111 = DIRECTION ( 'NONE',  ( -0.000000000000000000, -1.000000000000000000, -0.000000000000000000 ) ) ;
#112 = DIRECTION ( 'NONE',  ( -0.000000000000000000, -0.000000000000000000, -1.000000000000000000 ) ) ;
#113 = VECTOR ( 'NONE', #192, 1000.000000000000000 ) ;
#114 = VECTOR ( 'NONE', #645, 1000.000000000000000 ) ;
#115 = DIRECTION ( 'NONE',  ( -1.000000000000000000, 0.000000000000000000, 0.000000000000000000 ) ) ;
#116 = CARTESIAN_POINT ( 'NONE',  ( 6.099999999963650055, -14.59999999989373620, 4.500000000000000888 ) ) ;
#117 = LINE ( 'NONE', #356, #73 ) ;
#118 = ORIENTED_EDGE ( 'NONE', *, *, #498, .F. ) ;
#119 = DIRECTION ( 'NONE',  ( -1.000000000000000000, -8.710291402301344133E-12, -0.000000000000000000 ) ) ;
#120 = PERSON ( 'æœª', 'æœª', 'æœª', ('æœª'), ('æœª'), ('æœª') ) ;
#121 = CARTESIAN_POINT ( 'NONE',  ( -12.00000000000000355, 0.000000000000000000, 9.000000000000001776 ) ) ;
#122 = DIRECTION ( 'NONE',  ( 1.000000000000000000, 0.000000000000000000, 0.000000000000000000 ) ) ;
#123 = ORIENTED_EDGE ( 'NONE', *, *, #203, .F. ) ;
#124 = PERSON_AND_ORGANIZATION ( #120, #469 ) ;
#125 = DIRECTION ( 'NONE',  ( -1.000000000000000000, 0.000000000000000000, 0.000000000000000000 ) ) ;
#126 = CARTESIAN_POINT ( 'NONE',  ( -6.099999999917548266, -19.99999999999999645, 9.000000000000001776 ) ) ;
#127 = AXIS2_PLACEMENT_3D ( 'NONE', #458, #584, #700 ) ;
#128 = DIRECTION ( 'NONE',  ( -0.000000000000000000, -0.000000000000000000, -1.000000000000000000 ) ) ;
#129 = CARTESIAN_POINT ( 'NONE',  ( 2.099999999917547822, -12.00000000000000000, 9.000000000000001776 ) ) ;
#130 = CARTESIAN_POINT ( 'NONE',  ( 0.000000000000000000, 0.000000000000000000, 9.000000000000001776 ) ) ;
#131 = CARTESIAN_POINT ( 'NONE',  ( 6.099999999982353316, -12.40927072794810115, 9.000000000000001776 ) ) ;
#132 = EDGE_CURVE ( 'NONE', #676, #334, #140, .T. ) ;
#133 = FACE_OUTER_BOUND ( 'NONE', #725, .T. ) ;
#134 = DIRECTION ( 'NONE',  ( 0.000000000000000000, 0.000000000000000000, 1.000000000000000000 ) ) ;
#135 = APPLICATION_CONTEXT ( 'configuration controlled 3d designs of mechanical parts and assemblies' ) ;
#136 = AXIS2_PLACEMENT_3D ( 'NONE', #101, #42, #115 ) ;
#137 = EDGE_CURVE ( 'NONE', #440, #541, #673, .T. ) ;
#138 = VECTOR ( 'NONE', #457, 1000.000000000000000 ) ;
#139 = FACE_OUTER_BOUND ( 'NONE', #333, .T. ) ;
#140 = LINE ( 'NONE', #414, #216 ) ;
#141 = VERTEX_POINT ( 'NONE', #489 ) ;
#142 = DIRECTION ( 'NONE',  ( -1.000000000000000000, 8.673617379884036458E-16, 0.000000000000000000 ) ) ;
#143 = DATE_AND_TIME ( #88, #486 ) ;
#144 = DIRECTION ( 'NONE',  ( 1.000000000000000000, 0.000000000000000000, -0.000000000000000000 ) ) ;
#145 = EDGE_CURVE ( 'NONE', #324, #561, #406, .T. ) ;
#146 = PERSON_AND_ORGANIZATION_ROLE ( 'classification_officer' ) ;
#147 = ORIENTED_EDGE ( 'NONE', *, *, #701, .F. ) ;
#148 = FACE_BOUND ( 'NONE', #269, .T. ) ;
#149 = EDGE_CURVE ( 'NONE', #571, #446, #72, .T. ) ;
#150 = VERTEX_POINT ( 'NONE', #691 ) ;
#151 = ORIENTED_EDGE ( 'NONE', *, *, #663, .F. ) ;
#152 = CIRCLE ( 'NONE', #204, 12.00000000000000711 ) ;
#153 = LOCAL_TIME ( 19, 2, 25.00000000000000000, #476 ) ;
#154 = CARTESIAN_POINT ( 'NONE',  ( 0.000000000000000000, 0.000000000000000000, 0.000000000000000000 ) ) ;
#155 = EDGE_LOOP ( 'NONE', ( #285, #321, #392, #690 ) ) ;
#156 = ORIENTED_EDGE ( 'NONE', *, *, #637, .T. ) ;
#157 = SHAPE_DEFINITION_REPRESENTATION ( #221, #299 ) ;
#158 = ORIENTED_EDGE ( 'NONE', *, *, #611, .F. ) ;
#159 = EDGE_LOOP ( 'NONE', ( #508, #272, #81, #699 ) ) ;
#160 = ORIENTED_EDGE ( 'NONE', *, *, #721, .T. ) ;
#161 = CC_DESIGN_PERSON_AND_ORGANIZATION_ASSIGNMENT ( #124, #602, ( #388 ) ) ;
#162 = LINE ( 'NONE', #398, #537 ) ;
#163 = COORDINATED_UNIVERSAL_TIME_OFFSET ( 8, 0, .AHEAD. ) ;
#164 = VECTOR ( 'NONE', #372, 1000.000000000000000 ) ;
#165 = ORIENTED_EDGE ( 'NONE', *, *, #53, .F. ) ;
#166 = APPROVAL_PERSON_ORGANIZATION ( #395, #503, #759 ) ;
#167 = EDGE_LOOP ( 'NONE', ( #160, #147, #52, #438 ) ) ;
#168 = CARTESIAN_POINT ( 'NONE',  ( -6.099999999982297361, -12.40927072794815089, 9.000000000000001776 ) ) ;
#169 = CARTESIAN_POINT ( 'NONE',  ( -6.099999999936589923, -17.39999999999999858, 4.500000000000000888 ) ) ;
#170 = CALENDAR_DATE ( 2026, 29, 7 ) ;
#171 = ADVANCED_FACE ( 'NONE', ( #148, #622 ), #323, .F. ) ;
#172 = FACE_BOUND ( 'NONE', #37, .T. ) ;
#173 = PERSON_AND_ORGANIZATION ( #120, #469 ) ;
#174 = CARTESIAN_POINT ( 'NONE',  ( 12.00000000015158008, -17.39999999984234336, 4.500000000000000888 ) ) ;
#175 = VERTEX_POINT ( 'NONE', #746 ) ;
#176 = PRODUCT_RELATED_PRODUCT_CATEGORY ( 'detail', '', ( #491 ) ) ;
#177 = ORIENTED_EDGE ( 'NONE', *, *, #132, .F. ) ;
#178 = CARTESIAN_POINT ( 'NONE',  ( 12.00000000012719070, -14.59999999984234620, 4.500000000000000888 ) ) ;
#179 = DIRECTION ( 'NONE',  ( 8.537425521522377351E-12, 1.000000000000000000, 0.000000000000000000 ) ) ;
#180 = AXIS2_PLACEMENT_3D ( 'NONE', #92, #573, #504 ) ;
#181 = DIRECTION ( 'NONE',  ( -0.000000000000000000, -0.000000000000000000, -1.000000000000000000 ) ) ;
#182 = CIRCLE ( 'NONE', #686, 10.15000000000171276 ) ;
#183 = EDGE_CURVE ( 'NONE', #697, #329, #615, .T. ) ;
#184 = DIRECTION ( 'NONE',  ( -1.000000000000000000, 0.000000000000000000, 0.000000000000000000 ) ) ;
#185 = DIRECTION ( 'NONE',  ( -0.000000000000000000, -0.000000000000000000, -1.000000000000000000 ) ) ;
#186 = CARTESIAN_POINT ( 'NONE',  ( 0.000000000000000000, 0.000000000000000000, 0.000000000000000000 ) ) ;
#187 = DIRECTION ( 'NONE',  ( -1.000000000000000000, 0.000000000000000000, 0.000000000000000000 ) ) ;
#188 = VERTEX_POINT ( 'NONE', #35 ) ;
#189 = APPROVAL_DATE_TIME ( #629, #503 ) ;
#190 = CARTESIAN_POINT ( 'NONE',  ( 7.574999999986768096, -9.306953045986691819, 9.000000000000001776 ) ) ;
#191 = CIRCLE ( 'NONE', #89, 4.000000000000000000 ) ;
#192 = DIRECTION ( 'NONE',  ( -1.000000000000000000, -0.000000000000000000, -0.000000000000000000 ) ) ;
#193 = CIRCLE ( 'NONE', #136, 12.00000000000000711 ) ;
#194 = AXIS2_PLACEMENT_3D ( 'NONE', #403, #646, #110 ) ;
#195 = DIRECTION ( 'NONE',  ( 1.000000000000000000, 0.000000000000000000, 0.000000000000000000 ) ) ;
#196 = CARTESIAN_POINT ( 'NONE',  ( 10.15000000000171276, 0.000000000000000000, 9.000000000000001776 ) ) ;
#197 = EDGE_CURVE ( 'NONE', #541, #440, #46, .T. ) ;
#198 = DIRECTION ( 'NONE',  ( 8.710790025797832966E-12, -1.000000000000000000, 0.000000000000000000 ) ) ;
#199 = CARTESIAN_POINT ( 'NONE',  ( 6.099999999917548266, -19.99999999999999645, -2.000000000000000000 ) ) ;
#200 = PRODUCT_DEFINITION ( 'æœ', '', #388, #575 ) ;
#201 = DIRECTION ( 'NONE',  ( -0.000000000000000000, -0.000000000000000000, -1.000000000000000000 ) ) ;
#202 = DIRECTION ( 'NONE',  ( -1.000000000000000000, 0.000000000000000000, 0.000000000000000000 ) ) ;
#203 = EDGE_CURVE ( 'NONE', #570, #512, #275, .T. ) ;
#204 = AXIS2_PLACEMENT_3D ( 'NONE', #612, #70, #488 ) ;
#205 = ORIENTED_EDGE ( 'NONE', *, *, #434, .T. ) ;
#206 = DIRECTION ( 'NONE',  ( 0.000000000000000000, 0.000000000000000000, 1.000000000000000000 ) ) ;
#207 = VERTEX_POINT ( 'NONE', #530 ) ;
#208 = EDGE_CURVE ( 'NONE', #446, #19, #162, .T. ) ;
#209 = VERTEX_POINT ( 'NONE', #106 ) ;
#210 = ORIENTED_EDGE ( 'NONE', *, *, #405, .F. ) ;
#211 = PERSON_AND_ORGANIZATION_ROLE ( 'design_owner' ) ;
#212 = ORIENTED_EDGE ( 'NONE', *, *, #203, .T. ) ;
#213 = VERTEX_POINT ( 'NONE', #169 ) ;
#214 = ORIENTED_EDGE ( 'NONE', *, *, #761, .T. ) ;
#215 = APPROVAL_DATE_TIME ( #636, #477 ) ;
#216 = VECTOR ( 'NONE', #480, 1000.000000000000000 ) ;
#217 = ORIENTED_EDGE ( 'NONE', *, *, #613, .T. ) ;
#218 = EDGE_CURVE ( 'NONE', #451, #556, #767, .T. ) ;
#219 = ORIENTED_EDGE ( 'NONE', *, *, #714, .T. ) ;
#220 = ORIENTED_EDGE ( 'NONE', *, *, #53, .T. ) ;
#221 = PRODUCT_DEFINITION_SHAPE ( 'NONE', 'NONE',  #200 ) ;
#222 = ADVANCED_FACE ( 'NONE', ( #172, #401 ), #459, .F. ) ;
#223 = ORIENTED_EDGE ( 'NONE', *, *, #736, .F. ) ;
#224 = EDGE_LOOP ( 'NONE', ( #217, #436, #536, #439 ) ) ;
#225 = ADVANCED_FACE ( 'NONE', ( #638 ), #581, .F. ) ;
#226 = CARTESIAN_POINT ( 'NONE',  ( -2.099999999917547822, -20.00000000000000000, 9.000000000000001776 ) ) ;
#227 = PERSON_AND_ORGANIZATION ( #120, #469 ) ;
#228 = VECTOR ( 'NONE', #367, 1000.000000000000000 ) ;
#229 = ORIENTED_EDGE ( 'NONE', *, *, #364, .T. ) ;
#230 = AXIS2_PLACEMENT_3D ( 'NONE', #656, #593, #769 ) ;
#231 = DIRECTION ( 'NONE',  ( 0.000000000000000000, -1.000000000000000000, 0.000000000000000000 ) ) ;
#232 = DIRECTION ( 'NONE',  ( -1.000000000000000000, -0.000000000000000000, -0.000000000000000000 ) ) ;
#233 = DIRECTION ( 'NONE',  ( 0.000000000000000000, 0.000000000000000000, -1.000000000000000000 ) ) ;
#234 = CARTESIAN_POINT ( 'NONE',  ( 12.00000000000000355, 1.469576158976824342E-15, 9.000000000000001776 ) ) ;
#235 = ORIENTED_EDGE ( 'NONE', *, *, #183, .T. ) ;
#236 = CARTESIAN_POINT ( 'NONE',  ( -12.00000000000000178, 0.000000000000000000, 9.000000000000001776 ) ) ;
#237 = FACE_OUTER_BOUND ( 'NONE', #444, .T. ) ;
#238 = AXIS2_PLACEMENT_3D ( 'NONE', #774, #466, #66 ) ;
#239 = EDGE_CURVE ( 'NONE', #283, #570, #193, .T. ) ;
#240 = VERTEX_POINT ( 'NONE', #354 ) ;
#241 = CARTESIAN_POINT ( 'NONE',  ( 12.00000000013938539, -15.99999999984234478, 4.500000000000000888 ) ) ;
#242 = CARTESIAN_POINT ( 'NONE',  ( 10.09999999998235332, -12.40927072798225161, 9.000000000000001776 ) ) ;
#243 = PLANE ( 'NONE',  #91 ) ;
#244 = ORIENTED_EDGE ( 'NONE', *, *, #572, .T. ) ;
#245 = CYLINDRICAL_SURFACE ( 'NONE', #754, 1.399999999999998579 ) ;
#246 = FACE_OUTER_BOUND ( 'NONE', #338, .T. ) ;
#247 = EDGE_CURVE ( 'NONE', #561, #85, #702, .T. ) ;
#248 = DIRECTION ( 'NONE',  ( 1.000000000000000000, 0.000000000000000000, 0.000000000000000000 ) ) ;
#249 = CLOSED_SHELL ( 'NONE', ( #357, #68, #565, #493, #390, #332, #694, #171, #353, #775, #225, #61, #222, #10, #39, #394, #286, #412, #672, #652, #745, #514 ) ) ;
#250 = VECTOR ( 'NONE', #359, 1000.000000000000000 ) ;
#251 = LOCAL_TIME ( 19, 2, 25.00000000000000000, #274 ) ;
#252 = DIRECTION ( 'NONE',  ( 0.000000000000000000, -0.000000000000000000, -1.000000000000000000 ) ) ;
#253 = CC_DESIGN_PERSON_AND_ORGANIZATION_ASSIGNMENT ( #20, #654, ( #388 ) ) ;
#254 = EDGE_LOOP ( 'NONE', ( #281, #528, #267, #24 ) ) ;
#255 = DIRECTION ( 'NONE',  ( 8.710790025797832966E-12, -1.000000000000000000, 0.000000000000000000 ) ) ;
#256 = DIRECTION ( 'NONE',  ( 0.000000000000000000, 0.000000000000000000, 1.000000000000000000 ) ) ;
#257 = DIRECTION ( 'NONE',  ( -1.000000000000000000, -0.000000000000000000, -0.000000000000000000 ) ) ;
#258 = EDGE_CURVE ( 'NONE', #510, #676, #2, .T. ) ;
#259 = ORIENTED_EDGE ( 'NONE', *, *, #582, .F. ) ;
#260 = MANIFOLD_SOLID_BREP ( '\X2\51f853f0\X0\-\X2\62c94f38\X0\2', #249 ) ;
#261 = LINE ( 'NONE', #86, #751 ) ;
#262 = PERSON_AND_ORGANIZATION ( #120, #469 ) ;
#263 = ORIENTED_EDGE ( 'NONE', *, *, #472, .F. ) ;
#264 = VECTOR ( 'NONE', #30, 1000.000000000000000 ) ;
#265 = CIRCLE ( 'NONE', #589, 12.00000000000000711 ) ;
#266 = CARTESIAN_POINT ( 'NONE',  ( 0.000000000000000000, 0.000000000000000000, -2.000000000000000000 ) ) ;
#267 = ORIENTED_EDGE ( 'NONE', *, *, #727, .F. ) ;
#268 = DIRECTION ( 'NONE',  ( 1.000000000000000000, -5.185218573955374666E-11, 0.000000000000000000 ) ) ;
#269 = EDGE_LOOP ( 'NONE', ( #378, #96 ) ) ;
#270 = CALENDAR_DATE ( 2026, 29, 7 ) ;
#271 = ORIENTED_EDGE ( 'NONE', *, *, #277, .T. ) ;
#272 = ORIENTED_EDGE ( 'NONE', *, *, #109, .F. ) ;
#273 = ORIENTED_EDGE ( 'NONE', *, *, #247, .T. ) ;
#274 = COORDINATED_UNIVERSAL_TIME_OFFSET ( 8, 0, .AHEAD. ) ;
#275 = CIRCLE ( 'NONE', #375, 12.00000000000000711 ) ;
#276 = AXIS2_PLACEMENT_3D ( 'NONE', #742, #373, #560 ) ;
#277 = EDGE_CURVE ( 'NONE', #715, #29, #594, .T. ) ;
#278 = ORIENTED_EDGE ( 'NONE', *, *, #306, .F. ) ;
#279 = ORIENTED_EDGE ( 'NONE', *, *, #752, .F. ) ;
#280 = CARTESIAN_POINT ( 'NONE',  ( -2.099999999917547822, -15.99999999996516031, 4.500000000000000888 ) ) ;
#281 = ORIENTED_EDGE ( 'NONE', *, *, #183, .F. ) ;
#282 = EDGE_CURVE ( 'NONE', #541, #331, #465, .T. ) ;
#283 = VERTEX_POINT ( 'NONE', #478 ) ;
#284 = DIRECTION ( 'NONE',  ( -1.000000000000000000, 0.000000000000000000, 0.000000000000000000 ) ) ;
#285 = ORIENTED_EDGE ( 'NONE', *, *, #197, .F. ) ;
#286 = ADVANCED_FACE ( 'NONE', ( #482 ), #312, .F. ) ;
#287 = CARTESIAN_POINT ( 'NONE',  ( 7.574999999986768984, -9.306953045986691819, -2.000000000000000000 ) ) ;
#288 = AXIS2_PLACEMENT_3D ( 'NONE', #732, #368, #435 ) ;
#289 = CARTESIAN_POINT ( 'NONE',  ( -6.099999999917548266, -19.99999999999999645, 9.000000000000001776 ) ) ;
#290 = AXIS2_PLACEMENT_3D ( 'NONE', #470, #653, #404 ) ;
#291 = CARTESIAN_POINT ( 'NONE',  ( -2.099999999917547822, -12.00000000000000000, 9.000000000000001776 ) ) ;
#292 = VECTOR ( 'NONE', #112, 1000.000000000000000 ) ;
#293 = DIRECTION ( 'NONE',  ( -0.000000000000000000, -0.000000000000000000, 1.000000000000000000 ) ) ;
#294 = DIRECTION ( 'NONE',  ( 1.000000000000000000, 0.000000000000000000, 0.000000000000000000 ) ) ;
#295 = ORIENTED_EDGE ( 'NONE', *, *, #145, .F. ) ;
#296 = LINE ( 'NONE', #461, #626 ) ;
#297 = EDGE_CURVE ( 'NONE', #571, #462, #551, .T. ) ;
#298 = CARTESIAN_POINT ( 'NONE',  ( 10.09999999998235332, -12.40927072798225161, -2.000000000000000000 ) ) ;
#299 = ADVANCED_BREP_SHAPE_REPRESENTATION ( '\X2\64466746652f64918f6c8f745ea7\X0\', ( #260, #307 ), #717 ) ;
#300 = ORIENTED_EDGE ( 'NONE', *, *, #100, .T. ) ;
#301 = FACE_OUTER_BOUND ( 'NONE', #758, .T. ) ;
#302 = CARTESIAN_POINT ( 'NONE',  ( -10.15000000000000036, 0.000000000000000000, 9.000000000000001776 ) ) ;
#303 = LINE ( 'NONE', #291, #674 ) ;
#304 = VECTOR ( 'NONE', #346, 1000.000000000000000 ) ;
#305 = DIRECTION ( 'NONE',  ( -0.000000000000000000, -0.000000000000000000, -1.000000000000000000 ) ) ;
#306 = EDGE_CURVE ( 'NONE', #175, #334, #315, .T. ) ;
#307 = AXIS2_PLACEMENT_3D ( 'NONE', #154, #680, #383 ) ;
#308 = FACE_OUTER_BOUND ( 'NONE', #685, .T. ) ;
#309 = LINE ( 'NONE', #11, #138 ) ;
#310 = FACE_OUTER_BOUND ( 'NONE', #618, .T. ) ;
#311 = EDGE_CURVE ( 'NONE', #756, #1, #665, .T. ) ;
#312 = CYLINDRICAL_SURFACE ( 'NONE', #397, 1.399999999999998579 ) ;
#313 = DIRECTION ( 'NONE',  ( -0.000000000000000000, -0.000000000000000000, -1.000000000000000000 ) ) ;
#314 = DIRECTION ( 'NONE',  ( -1.000000000000000000, 0.000000000000000000, 0.000000000000000000 ) ) ;
#315 = LINE ( 'NONE', #726, #264 ) ;
#316 = VECTOR ( 'NONE', #201, 1000.000000000000000 ) ;
#317 = VECTOR ( 'NONE', #51, 1000.000000000000000 ) ;
#318 = CYLINDRICAL_SURFACE ( 'NONE', #623, 1.399999999999998579 ) ;
#319 = LINE ( 'NONE', #610, #316 ) ;
#320 = CYLINDRICAL_SURFACE ( 'NONE', #276, 10.15000000000171276 ) ;
#321 = ORIENTED_EDGE ( 'NONE', *, *, #282, .T. ) ;
#322 = DIRECTION ( 'NONE',  ( -1.000000000000000000, -0.000000000000000000, -0.000000000000000000 ) ) ;
#323 = PLANE ( 'NONE',  #180 ) ;
#324 = VERTEX_POINT ( 'NONE', #65 ) ;
#325 = DIRECTION ( 'NONE',  ( -8.537317678200152256E-12, -1.000000000000000000, 0.000000000000000000 ) ) ;
#326 = ORIENTED_EDGE ( 'NONE', *, *, #434, .F. ) ;
#327 = VECTOR ( 'NONE', #16, 1000.000000000000000 ) ;
#328 = AXIS2_PLACEMENT_3D ( 'NONE', #419, #607, #425 ) ;
#329 = VERTEX_POINT ( 'NONE', #190 ) ;
#330 = EDGE_LOOP ( 'NONE', ( #259, #634, #95, #448, #123 ) ) ;
#331 = VERTEX_POINT ( 'NONE', #358 ) ;
#332 = ADVANCED_FACE ( 'NONE', ( #58, #308 ), #502, .F. ) ;
#333 = EDGE_LOOP ( 'NONE', ( #108, #271, #33, #396, #235, #771, #494, #583, #343, #244, #300, #505, #41, #467 ) ) ;
#334 = VERTEX_POINT ( 'NONE', #473 ) ;
#335 = CARTESIAN_POINT ( 'NONE',  ( 6.099999999951697838, -15.99999999989373478, 4.500000000000000888 ) ) ;
#336 = MECHANICAL_CONTEXT ( 'NONE', #83, 'mechanical' ) ;
#337 = ORIENTED_EDGE ( 'NONE', *, *, #463, .F. ) ;
#338 = EDGE_LOOP ( 'NONE', ( #681, #118, #223, #263 ) ) ;
#339 = ORIENTED_EDGE ( 'NONE', *, *, #34, .T. ) ;
#340 = VECTOR ( 'NONE', #647, 1000.000000000000000 ) ;
#341 = AXIS2_PLACEMENT_3D ( 'NONE', #348, #595, #587 ) ;
#342 = EDGE_CURVE ( 'NONE', #564, #1, #696, .T. ) ;
#343 = ORIENTED_EDGE ( 'NONE', *, *, #87, .T. ) ;
#344 = ORIENTED_EDGE ( 'NONE', *, *, #535, .T. ) ;
#345 = CARTESIAN_POINT ( 'NONE',  ( 0.000000000000000000, 0.000000000000000000, -2.000000000000000000 ) ) ;
#346 = DIRECTION ( 'NONE',  ( 0.000000000000000000, 0.000000000000000000, 1.000000000000000000 ) ) ;
#347 = DATE_AND_TIME ( #170, #731 ) ;
#348 = CARTESIAN_POINT ( 'NONE',  ( 0.000000000000000000, 0.000000000000000000, 9.000000000000001776 ) ) ;
#349 = VECTOR ( 'NONE', #206, 1000.000000000000000 ) ;
#350 = DIRECTION ( 'NONE',  ( -8.530067451115044681E-12, 1.000000000000000000, 0.000000000000000000 ) ) ;
#351 = CARTESIAN_POINT ( 'NONE',  ( 10.15000000000171276, 0.000000000000000000, 0.000000000000000000 ) ) ;
#352 = CC_DESIGN_SECURITY_CLASSIFICATION ( #17, ( #388 ) ) ;
#353 = ADVANCED_FACE ( 'NONE', ( #487 ), #428, .F. ) ;
#354 = CARTESIAN_POINT ( 'NONE',  ( -2.099999999917547822, -12.00000000000000000, -2.000000000000000000 ) ) ;
#355 = DIRECTION ( 'NONE',  ( -1.000000000000000000, -8.710291402301344133E-12, -0.000000000000000000 ) ) ;
#356 = CARTESIAN_POINT ( 'NONE',  ( 1.734723475976807410E-14, -20.00000000000000355, -2.000000000000000000 ) ) ;
#357 = ADVANCED_FACE ( 'NONE', ( #361 ), #318, .F. ) ;
#358 = CARTESIAN_POINT ( 'NONE',  ( -6.099999999960978414, -14.60000000000000142, 4.500000000000000888 ) ) ;
#359 = DIRECTION ( 'NONE',  ( 1.000000000000000000, -8.673617379884035472E-16, 0.000000000000000000 ) ) ;
#360 = ORIENTED_EDGE ( 'NONE', *, *, #582, .T. ) ;
#361 = FACE_OUTER_BOUND ( 'NONE', #682, .T. ) ;
#362 = CARTESIAN_POINT ( 'NONE',  ( 12.00000000000000711, 1.469576158976824736E-15, -2.000000000000000000 ) ) ;
#363 = AXIS2_PLACEMENT_3D ( 'NONE', #644, #450, #350 ) ;
#364 = EDGE_CURVE ( 'NONE', #715, #556, #733, .T. ) ;
#365 = AXIS2_PLACEMENT_3D ( 'NONE', #539, #606, #526 ) ;
#366 = DIRECTION ( 'NONE',  ( 8.673617379884036458E-16, 1.000000000000000000, -0.000000000000000000 ) ) ;
#367 = DIRECTION ( 'NONE',  ( -0.000000000000000000, -0.000000000000000000, -1.000000000000000000 ) ) ;
#368 = DIRECTION ( 'NONE',  ( 0.000000000000000000, 1.000000000000000000, 0.000000000000000000 ) ) ;
#369 =( NAMED_UNIT ( * ) PLANE_ANGLE_UNIT ( ) SI_UNIT ( $, .RADIAN. ) );
#370 = CC_DESIGN_DATE_AND_TIME_ASSIGNMENT ( #143, #749, ( #17 ) ) ;
#371 = DIRECTION ( 'NONE',  ( 0.000000000000000000, 0.000000000000000000, 1.000000000000000000 ) ) ;
#372 = DIRECTION ( 'NONE',  ( -1.000000000000000000, -8.710291402301344133E-12, -0.000000000000000000 ) ) ;
#373 = DIRECTION ( 'NONE',  ( -0.000000000000000000, -0.000000000000000000, -1.000000000000000000 ) ) ;
#374 = DIRECTION ( 'NONE',  ( -8.530067451115043065E-12, 1.000000000000000000, 0.000000000000000000 ) ) ;
#375 = AXIS2_PLACEMENT_3D ( 'NONE', #641, #50, #516 ) ;
#376 = EDGE_CURVE ( 'NONE', #329, #512, #669, .T. ) ;
#377 = DIRECTION ( 'NONE',  ( 0.000000000000000000, 0.000000000000000000, -1.000000000000000000 ) ) ;
#378 = ORIENTED_EDGE ( 'NONE', *, *, #109, .T. ) ;
#379 = CARTESIAN_POINT ( 'NONE',  ( 0.000000000000000000, 0.000000000000000000, 9.000000000000001776 ) ) ;
#380 = FACE_OUTER_BOUND ( 'NONE', #159, .T. ) ;
#381 = PLANE ( 'NONE',  #729 ) ;
#382 = EDGE_LOOP ( 'NONE', ( #679, #520, #165, #326 ) ) ;
#383 = DIRECTION ( 'NONE',  ( 1.000000000000000000, 0.000000000000000000, 0.000000000000000000 ) ) ;
#384 = EDGE_LOOP ( 'NONE', ( #393, #517, #713, #177 ) ) ;
#385 = AXIS2_PLACEMENT_3D ( 'NONE', #28, #501, #325 ) ;
#386 = VECTOR ( 'NONE', #429, 1000.000000000000000 ) ;
#387 = ORIENTED_EDGE ( 'NONE', *, *, #342, .T. ) ;
#388 = PRODUCT_DEFINITION_FORMATION_WITH_SPECIFIED_SOURCE ( 'ä»', '', #491, .NOT_KNOWN. ) ;
#389 = ORIENTED_EDGE ( 'NONE', *, *, #149, .F. ) ;
#390 = ADVANCED_FACE ( 'NONE', ( #133 ), #14, .F. ) ;
#391 = VERTEX_POINT ( 'NONE', #677 ) ;
#392 = ORIENTED_EDGE ( 'NONE', *, *, #430, .T. ) ;
#393 = ORIENTED_EDGE ( 'NONE', *, *, #258, .F. ) ;
#394 = ADVANCED_FACE ( 'NONE', ( #139 ), #79, .T. ) ;
#395 = PERSON_AND_ORGANIZATION ( #120, #469 ) ;
#396 = ORIENTED_EDGE ( 'NONE', *, *, #632, .T. ) ;
#397 = AXIS2_PLACEMENT_3D ( 'NONE', #241, #119, #543 ) ;
#398 = CARTESIAN_POINT ( 'NONE',  ( 12.00000000015158008, -17.39999999984234336, 4.500000000000000888 ) ) ;
#399 = EDGE_LOOP ( 'NONE', ( #156, #747, #337, #273, #689 ) ) ;
#400 = FACE_OUTER_BOUND ( 'NONE', #382, .T. ) ;
#401 = FACE_OUTER_BOUND ( 'NONE', #384, .T. ) ;
#402 = CARTESIAN_POINT ( 'NONE',  ( 6.099999999917548266, -19.99999999999999645, 9.000000000000001776 ) ) ;
#403 = CARTESIAN_POINT ( 'NONE',  ( 0.000000000000000000, 0.000000000000000000, 0.000000000000000000 ) ) ;
#404 = DIRECTION ( 'NONE',  ( -1.000000000000000000, 0.000000000000000000, 0.000000000000000000 ) ) ;
#405 = EDGE_CURVE ( 'NONE', #19, #462, #103, .T. ) ;
#406 = CIRCLE ( 'NONE', #102, 4.000000000000000000 ) ;
#407 = CARTESIAN_POINT ( 'NONE',  ( 6.099999999917548266, -19.99999999999999645, 9.000000000000001776 ) ) ;
#408 = DIRECTION ( 'NONE',  ( -8.673617379884036458E-16, 1.000000000000000000, 0.000000000000000000 ) ) ;
#409 = DIRECTION ( 'NONE',  ( -0.000000000000000000, -0.000000000000000000, -1.000000000000000000 ) ) ;
#410 = CARTESIAN_POINT ( 'NONE',  ( 6.099999999917548266, -19.99999999999999645, 9.000000000000001776 ) ) ;
#411 = DIRECTION ( 'NONE',  ( -0.000000000000000000, -0.000000000000000000, -1.000000000000000000 ) ) ;
#412 = ADVANCED_FACE ( 'NONE', ( #380 ), #245, .F. ) ;
#413 = CARTESIAN_POINT ( 'NONE',  ( -6.099999999917548266, -19.99999999999999645, 9.000000000000001776 ) ) ;
#414 = CARTESIAN_POINT ( 'NONE',  ( -6.099999999917548266, -19.99999999999999645, 9.000000000000001776 ) ) ;
#415 = CARTESIAN_POINT ( 'NONE',  ( 6.099999999982353316, -12.40927072794810115, 9.000000000000001776 ) ) ;
#416 = PLANE ( 'NONE',  #684 ) ;
#417 = CALENDAR_DATE ( 2026, 29, 7 ) ;
#418 = DIRECTION ( 'NONE',  ( 0.000000000000000000, -1.000000000000000000, 0.000000000000000000 ) ) ;
#419 = CARTESIAN_POINT ( 'NONE',  ( -6.099999999948784613, -16.00000000000000000, 4.500000000000000888 ) ) ;
#420 = EDGE_CURVE ( 'NONE', #188, #564, #484, .T. ) ;
#421 = VECTOR ( 'NONE', #322, 1000.000000000000000 ) ;
#422 = DIRECTION ( 'NONE',  ( -0.000000000000000000, -0.000000000000000000, -1.000000000000000000 ) ) ;
#423 = AXIS2_PLACEMENT_3D ( 'NONE', #544, #248, #492 ) ;
#424 = DIRECTION ( 'NONE',  ( -1.000000000000000000, -8.710291402301344133E-12, -0.000000000000000000 ) ) ;
#425 = DIRECTION ( 'NONE',  ( 8.710170481699270051E-12, -1.000000000000000000, 0.000000000000000000 ) ) ;
#426 = CARTESIAN_POINT ( 'NONE',  ( 2.099999999917547822, -17.39999999992857838, 4.500000000000000888 ) ) ;
#427 = DATE_AND_TIME ( #417, #153 ) ;
#428 = PLANE ( 'NONE',  #452 ) ;
#429 = DIRECTION ( 'NONE',  ( -0.000000000000000000, -0.000000000000000000, -1.000000000000000000 ) ) ;
#430 = EDGE_CURVE ( 'NONE', #331, #213, #445, .T. ) ;
#431 = AXIS2_PLACEMENT_3D ( 'NONE', #608, #657, #134 ) ;
#432 = FACE_OUTER_BOUND ( 'NONE', #330, .T. ) ;
#433 = AXIS2_PLACEMENT_3D ( 'NONE', #242, #723, #187 ) ;
#434 = EDGE_CURVE ( 'NONE', #97, #391, #152, .T. ) ;
#435 = DIRECTION ( 'NONE',  ( 0.000000000000000000, -0.000000000000000000, 1.000000000000000000 ) ) ;
#436 = ORIENTED_EDGE ( 'NONE', *, *, #637, .F. ) ;
#437 = LINE ( 'NONE', #71, #660 ) ;
#438 = ORIENTED_EDGE ( 'NONE', *, *, #632, .F. ) ;
#439 = ORIENTED_EDGE ( 'NONE', *, *, #311, .T. ) ;
#440 = VERTEX_POINT ( 'NONE', #734 ) ;
#441 = CARTESIAN_POINT ( 'NONE',  ( 10.09999999998235332, -12.40927072798225161, 9.000000000000001776 ) ) ;
#442 = CALENDAR_DATE ( 2026, 29, 7 ) ;
#443 = VERTEX_POINT ( 'NONE', #199 ) ;
#444 = EDGE_LOOP ( 'NONE', ( #513, #692, #295, #518 ) ) ;
#445 = CIRCLE ( 'NONE', #328, 1.399999999999998579 ) ;
#446 = VERTEX_POINT ( 'NONE', #670 ) ;
#447 = CC_DESIGN_APPROVAL ( #5, ( #388 ) ) ;
#448 = ORIENTED_EDGE ( 'NONE', *, *, #376, .T. ) ;
#449 = PERSON_AND_ORGANIZATION ( #120, #469 ) ;
#450 = DIRECTION ( 'NONE',  ( 1.000000000000000000, 8.530067451115044681E-12, -0.000000000000000000 ) ) ;
#451 = VERTEX_POINT ( 'NONE', #90 ) ;
#452 = AXIS2_PLACEMENT_3D ( 'NONE', #655, #418, #252 ) ;
#453 = CIRCLE ( 'NONE', #230, 1.399999999999999245 ) ;
#454 = CYLINDRICAL_SURFACE ( 'NONE', #127, 12.00000000000000355 ) ;
#455 = DIRECTION ( 'NONE',  ( 0.000000000000000000, -0.000000000000000000, -1.000000000000000000 ) ) ;
#456 = COORDINATED_UNIVERSAL_TIME_OFFSET ( 8, 0, .AHEAD. ) ;
#457 = DIRECTION ( 'NONE',  ( -0.000000000000000000, -0.000000000000000000, -1.000000000000000000 ) ) ;
#458 = CARTESIAN_POINT ( 'NONE',  ( 0.000000000000000000, 0.000000000000000000, 9.000000000000001776 ) ) ;
#459 = PLANE ( 'NONE',  #363 ) ;
#460 = APPROVAL_STATUS ( 'not_yet_approved' ) ;
#461 = CARTESIAN_POINT ( 'NONE',  ( -12.00000000000000355, 1.469576158976824342E-15, 9.000000000000001776 ) ) ;
#462 = VERTEX_POINT ( 'NONE', #750 ) ;
#463 = EDGE_CURVE ( 'NONE', #561, #283, #265, .T. ) ;
#464 = ORIENTED_EDGE ( 'NONE', *, *, #714, .F. ) ;
#465 = LINE ( 'NONE', #178, #327 ) ;
#466 = DIRECTION ( 'NONE',  ( 0.000000000000000000, 0.000000000000000000, 1.000000000000000000 ) ) ;
#467 = ORIENTED_EDGE ( 'NONE', *, *, #472, .T. ) ;
#468 = VECTOR ( 'NONE', #705, 1000.000000000000000 ) ;
#469 = ORGANIZATION ( 'æœª', 'æœª', '' ) ;
#470 = CARTESIAN_POINT ( 'NONE',  ( -10.09999999998229825, -12.40927072798227115, 9.000000000000001776 ) ) ;
#471 = LINE ( 'NONE', #527, #26 ) ;
#472 = EDGE_CURVE ( 'NONE', #209, #740, #762, .T. ) ;
#473 = CARTESIAN_POINT ( 'NONE',  ( -6.099999999917548266, -19.99999999999999645, -2.000000000000000000 ) ) ;
#474 = LINE ( 'NONE', #234, #114 ) ;
#475 = EDGE_LOOP ( 'NONE', ( #659, #38 ) ) ;
#476 = COORDINATED_UNIVERSAL_TIME_OFFSET ( 8, 0, .AHEAD. ) ;
#477 = APPROVAL ( #566, 'æœª' ) ;
#478 = CARTESIAN_POINT ( 'NONE',  ( -12.00000000000000711, 0.000000000000000000, -2.000000000000000000 ) ) ;
#479 = DIRECTION ( 'NONE',  ( 8.710790025797832966E-12, -1.000000000000000000, 0.000000000000000000 ) ) ;
#480 = DIRECTION ( 'NONE',  ( -0.000000000000000000, -0.000000000000000000, -1.000000000000000000 ) ) ;
#481 = LINE ( 'NONE', #728, #113 ) ;
#482 = FACE_OUTER_BOUND ( 'NONE', #753, .T. ) ;
#483 = AXIS2_PLACEMENT_3D ( 'NONE', #130, #256, #144 ) ;
#484 = LINE ( 'NONE', #196, #386 ) ;
#485 = VECTOR ( 'NONE', #422, 1000.000000000000000 ) ;
#486 = LOCAL_TIME ( 19, 2, 25.00000000000000000, #621 ) ;
#487 = FACE_OUTER_BOUND ( 'NONE', #32, .T. ) ;
#488 = DIRECTION ( 'NONE',  ( -1.000000000000000000, 0.000000000000000000, 0.000000000000000000 ) ) ;
#489 = CARTESIAN_POINT ( 'NONE',  ( 12.00000000000000178, 0.000000000000000000, 9.000000000000001776 ) ) ;
#490 =( NAMED_UNIT ( * ) SI_UNIT ( $, .STERADIAN. ) SOLID_ANGLE_UNIT ( ) );
#491 = PRODUCT ( '\X2\64466746652f64918f6c8f745ea7\X0\', '\X2\64466746652f64918f6c8f745ea7\X0\', '', ( #336 ) ) ;
#492 = DIRECTION ( 'NONE',  ( 0.000000000000000000, 0.000000000000000000, -1.000000000000000000 ) ) ;
#493 = ADVANCED_FACE ( 'NONE', ( #580 ), #454, .T. ) ;
#494 = ORIENTED_EDGE ( 'NONE', *, *, #21, .T. ) ;
#495 = AXIS2_PLACEMENT_3D ( 'NONE', #722, #13, #74 ) ;
#496 = LINE ( 'NONE', #131, #349 ) ;
#497 = CIRCLE ( 'NONE', #511, 4.000000000000000000 ) ;
#498 = EDGE_CURVE ( 'NONE', #240, #175, #704, .T. ) ;
#499 = CARTESIAN_POINT ( 'NONE',  ( -2.099999999917547822, -20.00000000000000000, 9.000000000000001776 ) ) ;
#500 = ORIENTED_EDGE ( 'NONE', *, *, #547, .F. ) ;
#501 = DIRECTION ( 'NONE',  ( -1.000000000000000000, 8.537425521522375736E-12, 0.000000000000000000 ) ) ;
#502 = PLANE ( 'NONE',  #495 ) ;
#503 = APPROVAL ( #576, 'æœª' ) ;
#504 = DIRECTION ( 'NONE',  ( -8.537425521522377351E-12, -1.000000000000000000, 0.000000000000000000 ) ) ;
#505 = ORIENTED_EDGE ( 'NONE', *, *, #258, .T. ) ;
#506 = ORIENTED_EDGE ( 'NONE', *, *, #137, .F. ) ;
#507 = APPLICATION_PROTOCOL_DEFINITION ( 'international standard', 'config_control_design', 1994, #135 ) ;
#508 = ORIENTED_EDGE ( 'NONE', *, *, #297, .F. ) ;
#509 = AXIS2_PLACEMENT_3D ( 'NONE', #335, #84, #559 ) ;
#510 = VERTEX_POINT ( 'NONE', #168 ) ;
#511 = AXIS2_PLACEMENT_3D ( 'NONE', #298, #293, #708 ) ;
#512 = VERTEX_POINT ( 'NONE', #287 ) ;
#513 = ORIENTED_EDGE ( 'NONE', *, *, #100, .F. ) ;
#514 = ADVANCED_FACE ( 'NONE', ( #400 ), #766, .F. ) ;
#515 = ORIENTED_EDGE ( 'NONE', *, *, #239, .F. ) ;
#516 = DIRECTION ( 'NONE',  ( -1.000000000000000000, 0.000000000000000000, 0.000000000000000000 ) ) ;
#517 = ORIENTED_EDGE ( 'NONE', *, *, #49, .T. ) ;
#518 = ORIENTED_EDGE ( 'NONE', *, *, #49, .F. ) ;
#519 = CARTESIAN_POINT ( 'NONE',  ( -7.574999999986724575, -9.306953045986706030, 9.000000000000001776 ) ) ;
#520 = ORIENTED_EDGE ( 'NONE', *, *, #342, .F. ) ;
#521 = AXIS2_PLACEMENT_3D ( 'NONE', #186, #411, #195 ) ;
#522 = AXIS2_PLACEMENT_3D ( 'NONE', #441, #683, #568 ) ;
#523 = EDGE_CURVE ( 'NONE', #29, #578, #591, .T. ) ;
#524 = VECTOR ( 'NONE', #231, 1000.000000000000000 ) ;
#525 = DIRECTION ( 'NONE',  ( 0.000000000000000000, -1.000000000000000000, 0.000000000000000000 ) ) ;
#526 = DIRECTION ( 'NONE',  ( 8.710170481699270051E-12, -1.000000000000000000, 0.000000000000000000 ) ) ;
#527 = CARTESIAN_POINT ( 'NONE',  ( 6.100000000088297014, -5.207829568204031703E-11, -2.000000000000000000 ) ) ;
#528 = ORIENTED_EDGE ( 'NONE', *, *, #31, .F. ) ;
#529 = CC_DESIGN_PERSON_AND_ORGANIZATION_ASSIGNMENT ( #262, #146, ( #17 ) ) ;
#530 = CARTESIAN_POINT ( 'NONE',  ( -12.00000000000000355, 1.469576158976824342E-15, 9.000000000000001776 ) ) ;
#531 = CARTESIAN_POINT ( 'NONE',  ( -12.00000000000000178, 0.000000000000000000, 0.000000000000000000 ) ) ;
#532 = ORIENTED_EDGE ( 'NONE', *, *, #761, .F. ) ;
#533 = CYLINDRICAL_SURFACE ( 'NONE', #290, 4.000000000000000000 ) ;
#534 = LINE ( 'NONE', #4, #698 ) ;
#535 = EDGE_CURVE ( 'NONE', #440, #213, #45, .T. ) ;
#536 = ORIENTED_EDGE ( 'NONE', *, *, #87, .F. ) ;
#537 = VECTOR ( 'NONE', #585, 1000.000000000000000 ) ;
#538 = CIRCLE ( 'NONE', #341, 12.00000000000002132 ) ;
#539 = CARTESIAN_POINT ( 'NONE',  ( -6.099999999948784613, -16.00000000000000000, 4.500000000000000888 ) ) ;
#540 = CARTESIAN_POINT ( 'NONE',  ( -2.099999999917547822, -12.00000000000000000, 9.000000000000001776 ) ) ;
#541 = VERTEX_POINT ( 'NONE', #59 ) ;
#542 = CYLINDRICAL_SURFACE ( 'NONE', #738, 12.00000000000000355 ) ;
#543 = DIRECTION ( 'NONE',  ( 8.710790025797832966E-12, -1.000000000000000000, 0.000000000000000000 ) ) ;
#544 = CARTESIAN_POINT ( 'NONE',  ( 2.099999999917547822, -15.99999999992857802, 4.500000000000000888 ) ) ;
#545 = LINE ( 'NONE', #499, #485 ) ;
#546 = DIRECTION ( 'NONE',  ( -1.000000000000000000, 0.000000000000000000, 0.000000000000000000 ) ) ;
#547 = EDGE_CURVE ( 'NONE', #740, #715, #303, .T. ) ;
#548 = AXIS2_PLACEMENT_3D ( 'NONE', #22, #18, #255 ) ;
#549 = VECTOR ( 'NONE', #711, 1000.000000000000000 ) ;
#550 = CYLINDRICAL_SURFACE ( 'NONE', #25, 12.00000000000000355 ) ;
#551 = LINE ( 'NONE', #598, #164 ) ;
#552 = CC_DESIGN_DATE_AND_TIME_ASSIGNMENT ( #347, #586, ( #200 ) ) ;
#553 = DIRECTION ( 'NONE',  ( -1.000000000000000000, 0.000000000000000000, -0.000000000000000000 ) ) ;
#554 = ORIENTED_EDGE ( 'NONE', *, *, #721, .F. ) ;
#555 = CARTESIAN_POINT ( 'NONE',  ( -6.100000000088149577, -5.203341145255368442E-11, -2.000000000000000000 ) ) ;
#556 = VERTEX_POINT ( 'NONE', #718 ) ;
#557 = LINE ( 'NONE', #555, #639 ) ;
#558 = EDGE_CURVE ( 'NONE', #141, #391, #309, .T. ) ;
#559 = DIRECTION ( 'NONE',  ( -8.537317678200152256E-12, -1.000000000000000000, 0.000000000000000000 ) ) ;
#560 = DIRECTION ( 'NONE',  ( -1.000000000000000000, 0.000000000000000000, 0.000000000000000000 ) ) ;
#561 = VERTEX_POINT ( 'NONE', #712 ) ;
#562 = VECTOR ( 'NONE', #128, 1000.000000000000000 ) ;
#563 = DIRECTION ( 'NONE',  ( -0.000000000000000000, -0.000000000000000000, -1.000000000000000000 ) ) ;
#564 = VERTEX_POINT ( 'NONE', #351 ) ;
#565 = ADVANCED_FACE ( 'NONE', ( #703 ), #542, .T. ) ;
#566 = APPROVAL_STATUS ( 'not_yet_approved' ) ;
#567 = ORIENTED_EDGE ( 'NONE', *, *, #611, .T. ) ;
#568 = DIRECTION ( 'NONE',  ( 1.000000000000000000, 0.000000000000000000, 0.000000000000000000 ) ) ;
#569 = ORIENTED_EDGE ( 'NONE', *, *, #430, .F. ) ;
#570 = VERTEX_POINT ( 'NONE', #362 ) ;
#571 = VERTEX_POINT ( 'NONE', #116 ) ;
#572 = EDGE_CURVE ( 'NONE', #207, #85, #625, .T. ) ;
#573 = DIRECTION ( 'NONE',  ( -1.000000000000000000, 8.537425521522377351E-12, 0.000000000000000000 ) ) ;
#574 = VECTOR ( 'NONE', #355, 1000.000000000000000 ) ;
#575 = DESIGN_CONTEXT ( 'detailed design', #135, 'design' ) ;
#576 = APPROVAL_STATUS ( 'not_yet_approved' ) ;
#577 = CC_DESIGN_PERSON_AND_ORGANIZATION_ASSIGNMENT ( #227, #773, ( #200 ) ) ;
#578 = VERTEX_POINT ( 'NONE', #402 ) ;
#579 = ORIENTED_EDGE ( 'NONE', *, *, #75, .T. ) ;
#580 = FACE_OUTER_BOUND ( 'NONE', #399, .T. ) ;
#581 = PLANE ( 'NONE',  #603 ) ;
#582 = EDGE_CURVE ( 'NONE', #391, #570, #474, .T. ) ;
#583 = ORIENTED_EDGE ( 'NONE', *, *, #693, .T. ) ;
#584 = DIRECTION ( 'NONE',  ( -0.000000000000000000, -0.000000000000000000, -1.000000000000000000 ) ) ;
#585 = DIRECTION ( 'NONE',  ( -1.000000000000000000, -8.710291402301344133E-12, -0.000000000000000000 ) ) ;
#586 = DATE_TIME_ROLE ( 'creation_date' ) ;
#587 = DIRECTION ( 'NONE',  ( 1.000000000000000000, 0.000000000000000000, 0.000000000000000000 ) ) ;
#588 = DIRECTION ( 'NONE',  ( -1.000000000000000000, -8.673617379884035472E-16, 0.000000000000000000 ) ) ;
#589 = AXIS2_PLACEMENT_3D ( 'NONE', #345, #233, #284 ) ;
#590 = APPROVAL_PERSON_ORGANIZATION ( #449, #477, #628 ) ;
#591 = LINE ( 'NONE', #407, #317 ) ;
#592 = CARTESIAN_POINT ( 'NONE',  ( -6.099999999917548266, -19.99999999999999645, 9.000000000000001776 ) ) ;
#593 = DIRECTION ( 'NONE',  ( 1.000000000000000000, 0.000000000000000000, 0.000000000000000000 ) ) ;
#594 = LINE ( 'NONE', #54, #764 ) ;
#595 = DIRECTION ( 'NONE',  ( 0.000000000000000000, 0.000000000000000000, 1.000000000000000000 ) ) ;
#596 = PLANE ( 'NONE',  #730 ) ;
#597 = ORIENTED_EDGE ( 'NONE', *, *, #132, .T. ) ;
#598 = CARTESIAN_POINT ( 'NONE',  ( 12.00000000012719070, -14.59999999984234620, 4.500000000000000888 ) ) ;
#599 = FACE_OUTER_BOUND ( 'NONE', #254, .T. ) ;
#600 = EDGE_CURVE ( 'NONE', #329, #141, #538, .T. ) ;
#601 = LINE ( 'NONE', #60, #661 ) ;
#602 = PERSON_AND_ORGANIZATION_ROLE ( 'design_supplier' ) ;
#603 = AXIS2_PLACEMENT_3D ( 'NONE', #236, #525, #455 ) ;
#604 = CARTESIAN_POINT ( 'NONE',  ( 12.00000000013938539, -15.99999999984234478, 4.500000000000000888 ) ) ;
#605 = CC_DESIGN_APPROVAL ( #503, ( #200 ) ) ;
#606 = DIRECTION ( 'NONE',  ( -1.000000000000000000, -8.710291402301344133E-12, 0.000000000000000000 ) ) ;
#607 = DIRECTION ( 'NONE',  ( -1.000000000000000000, -8.710291402301344133E-12, 0.000000000000000000 ) ) ;
#608 = CARTESIAN_POINT ( 'NONE',  ( -2.099999999917547822, -15.99999999996516031, 4.500000000000000888 ) ) ;
#609 = CARTESIAN_POINT ( 'NONE',  ( 2.099999999917547822, -20.00000000000000000, 9.000000000000001776 ) ) ;
#610 = CARTESIAN_POINT ( 'NONE',  ( -6.099999999982297361, -12.40927072794815089, 0.000000000000000000 ) ) ;
#611 = EDGE_CURVE ( 'NONE', #213, #331, #47, .T. ) ;
#612 = CARTESIAN_POINT ( 'NONE',  ( 0.000000000000000000, 0.000000000000000000, 0.000000000000000000 ) ) ;
#613 = EDGE_CURVE ( 'NONE', #1, #97, #55, .T. ) ;
#614 = CARTESIAN_POINT ( 'NONE',  ( 7.574999999986768096, -9.306953045986691819, 9.000000000000001776 ) ) ;
#615 = CIRCLE ( 'NONE', #522, 4.000000000000000000 ) ;
#616 = LINE ( 'NONE', #77, #421 ) ;
#617 = CARTESIAN_POINT ( 'NONE',  ( 12.00000000013938539, -15.99999999984234478, 4.500000000000000888 ) ) ;
#618 = EDGE_LOOP ( 'NONE', ( #214, #464, #554, #624 ) ) ;
#619 = CARTESIAN_POINT ( 'NONE',  ( -2.099999999917547822, -20.00000000000000000, 9.000000000000001776 ) ) ;
#620 = DIRECTION ( 'NONE',  ( -0.000000000000000000, -0.000000000000000000, 1.000000000000000000 ) ) ;
#621 = COORDINATED_UNIVERSAL_TIME_OFFSET ( 8, 0, .AHEAD. ) ;
#622 = FACE_OUTER_BOUND ( 'NONE', #167, .T. ) ;
#623 = AXIS2_PLACEMENT_3D ( 'NONE', #604, #424, #198 ) ;
#624 = ORIENTED_EDGE ( 'NONE', *, *, #523, .F. ) ;
#625 = CIRCLE ( 'NONE', #238, 12.00000000000000355 ) ;
#626 = VECTOR ( 'NONE', #185, 1000.000000000000000 ) ;
#627 = ORIENTED_EDGE ( 'NONE', *, *, #75, .F. ) ;
#628 = APPROVAL_ROLE ( '' ) ;
#629 = DATE_AND_TIME ( #442, #64 ) ;
#630 = ORIENTED_EDGE ( 'NONE', *, *, #282, .F. ) ;
#631 = EDGE_LOOP ( 'NONE', ( #205, #360, #515, #151 ) ) ;
#632 = EDGE_CURVE ( 'NONE', #578, #697, #3, .T. ) ;
#633 = DIRECTION ( 'NONE',  ( -1.000000000000000000, 0.000000000000000000, 0.000000000000000000 ) ) ;
#634 = ORIENTED_EDGE ( 'NONE', *, *, #558, .F. ) ;
#635 = EDGE_LOOP ( 'NONE', ( #62, #107 ) ) ;
#636 = DATE_AND_TIME ( #270, #251 ) ;
#637 = EDGE_CURVE ( 'NONE', #207, #97, #296, .T. ) ;
#638 = FACE_OUTER_BOUND ( 'NONE', #224, .T. ) ;
#639 = VECTOR ( 'NONE', #374, 1000.000000000000000 ) ;
#640 = ORIENTED_EDGE ( 'NONE', *, *, #727, .T. ) ;
#641 = CARTESIAN_POINT ( 'NONE',  ( 0.000000000000000000, 0.000000000000000000, -2.000000000000000000 ) ) ;
#642 = ORIENTED_EDGE ( 'NONE', *, *, #306, .T. ) ;
#643 = ORIENTED_EDGE ( 'NONE', *, *, #311, .F. ) ;
#644 = CARTESIAN_POINT ( 'NONE',  ( -6.099999999917548266, -19.99999999999999645, 9.000000000000001776 ) ) ;
#645 = DIRECTION ( 'NONE',  ( -0.000000000000000000, -0.000000000000000000, -1.000000000000000000 ) ) ;
#646 = DIRECTION ( 'NONE',  ( 0.000000000000000000, 0.000000000000000000, -1.000000000000000000 ) ) ;
#647 = DIRECTION ( 'NONE',  ( 8.530067451115043065E-12, -1.000000000000000000, -0.000000000000000000 ) ) ;
#648 = LINE ( 'NONE', #592, #250 ) ;
#649 = VECTOR ( 'NONE', #232, 1000.000000000000000 ) ;
#650 = DIRECTION ( 'NONE',  ( -0.000000000000000000, -0.000000000000000000, -1.000000000000000000 ) ) ;
#651 = DIRECTION ( 'NONE',  ( -1.000000000000000000, -8.673617379884036458E-16, 0.000000000000000000 ) ) ;
#652 = ADVANCED_FACE ( 'NONE', ( #237 ), #533, .F. ) ;
#653 = DIRECTION ( 'NONE',  ( -0.000000000000000000, -0.000000000000000000, -1.000000000000000000 ) ) ;
#654 = PERSON_AND_ORGANIZATION_ROLE ( 'creator' ) ;
#655 = CARTESIAN_POINT ( 'NONE',  ( 10.15000000000342339, 0.000000000000000000, 9.000000000000001776 ) ) ;
#656 = CARTESIAN_POINT ( 'NONE',  ( 2.099999999917547822, -15.99999999992857802, 4.500000000000000888 ) ) ;
#657 = DIRECTION ( 'NONE',  ( -1.000000000000000000, 0.000000000000000000, 0.000000000000000000 ) ) ;
#658 = DIRECTION ( 'NONE',  ( -8.537425521522377351E-12, -1.000000000000000000, 0.000000000000000000 ) ) ;
#659 = ORIENTED_EDGE ( 'NONE', *, *, #405, .T. ) ;
#660 = VECTOR ( 'NONE', #257, 1000.000000000000000 ) ;
#661 = VECTOR ( 'NONE', #56, 1000.000000000000000 ) ;
#662 =( LENGTH_UNIT ( ) NAMED_UNIT ( * ) SI_UNIT ( .MILLI., .METRE. ) );
#663 = EDGE_CURVE ( 'NONE', #97, #283, #707, .T. ) ;
#664 = FACE_OUTER_BOUND ( 'NONE', #155, .T. ) ;
#665 = LINE ( 'NONE', #302, #737 ) ;
#666 = CARTESIAN_POINT ( 'NONE',  ( -10.15000000000000036, 0.000000000000000000, 9.000000000000001776 ) ) ;
#667 = EDGE_CURVE ( 'NONE', #676, #209, #648, .T. ) ;
#668 = CARTESIAN_POINT ( 'NONE',  ( 2.099999999917547822, -20.00000000000000000, 9.000000000000001776 ) ) ;
#669 = LINE ( 'NONE', #614, #228 ) ;
#670 = CARTESIAN_POINT ( 'NONE',  ( 6.099999999939745621, -17.39999999989373336, 4.500000000000000888 ) ) ;
#671 = CARTESIAN_POINT ( 'NONE',  ( -10.09999999998229825, -12.40927072798227115, -2.000000000000000000 ) ) ;
#672 = ADVANCED_FACE ( 'NONE', ( #599 ), #8, .F. ) ;
#673 = CIRCLE ( 'NONE', #431, 1.399999999999999245 ) ;
#674 = VECTOR ( 'NONE', #294, 1000.000000000000000 ) ;
#675 = APPLICATION_PROTOCOL_DEFINITION ( 'international standard', 'config_control_design', 1994, #83 ) ;
#676 = VERTEX_POINT ( 'NONE', #413 ) ;
#677 = CARTESIAN_POINT ( 'NONE',  ( 12.00000000000000711, 0.000000000000000000, 0.000000000000000000 ) ) ;
#678 = FACE_OUTER_BOUND ( 'NONE', #36, .T. ) ;
#679 = ORIENTED_EDGE ( 'NONE', *, *, #613, .F. ) ;
#680 = DIRECTION ( 'NONE',  ( 0.000000000000000000, 0.000000000000000000, 1.000000000000000000 ) ) ;
#681 = ORIENTED_EDGE ( 'NONE', *, *, #752, .T. ) ;
#682 = EDGE_LOOP ( 'NONE', ( #389, #748, #210, #710 ) ) ;
#683 = DIRECTION ( 'NONE',  ( -0.000000000000000000, -0.000000000000000000, -1.000000000000000000 ) ) ;
#684 = AXIS2_PLACEMENT_3D ( 'NONE', #126, #366, #142 ) ;
#685 = EDGE_LOOP ( 'NONE', ( #229, #755, #532, #770 ) ) ;
#686 = AXIS2_PLACEMENT_3D ( 'NONE', #724, #181, #122 ) ;
#687 = EDGE_CURVE ( 'NONE', #462, #19, #453, .T. ) ;
#688 = CC_DESIGN_APPROVAL ( #477, ( #17 ) ) ;
#689 = ORIENTED_EDGE ( 'NONE', *, *, #572, .F. ) ;
#690 = ORIENTED_EDGE ( 'NONE', *, *, #535, .F. ) ;
#691 = CARTESIAN_POINT ( 'NONE',  ( 6.099999999982354204, -12.40927072794810115, -2.000000000000000000 ) ) ;
#692 = ORIENTED_EDGE ( 'NONE', *, *, #247, .F. ) ;
#693 = EDGE_CURVE ( 'NONE', #188, #756, #182, .T. ) ;
#694 = ADVANCED_FACE ( 'NONE', ( #310 ), #596, .F. ) ;
#695 = ORIENTED_EDGE ( 'NONE', *, *, #693, .F. ) ;
#696 = CIRCLE ( 'NONE', #521, 10.15000000000171276 ) ;
#697 = VERTEX_POINT ( 'NONE', #415 ) ;
#698 = VECTOR ( 'NONE', #305, 1000.000000000000000 ) ;
#699 = ORIENTED_EDGE ( 'NONE', *, *, #687, .F. ) ;
#700 = DIRECTION ( 'NONE',  ( -1.000000000000000000, 0.000000000000000000, 0.000000000000000000 ) ) ;
#701 = EDGE_CURVE ( 'NONE', #150, #443, #471, .T. ) ;
#702 = LINE ( 'NONE', #519, #304 ) ;
#703 = FACE_OUTER_BOUND ( 'NONE', #631, .T. ) ;
#704 = LINE ( 'NONE', #44, #524 ) ;
#705 = DIRECTION ( 'NONE',  ( 0.000000000000000000, 1.000000000000000000, 0.000000000000000000 ) ) ;
#706 = APPROVAL_ROLE ( '' ) ;
#707 = LINE ( 'NONE', #121, #292 ) ;
#708 = DIRECTION ( 'NONE',  ( -1.000000000000000000, -5.189468646471517843E-11, 0.000000000000000000 ) ) ;
#709 = EDGE_LOOP ( 'NONE', ( #743, #105, #212, #640, #720, #219, #104, #579, #99, #642, #339, #741 ) ) ;
#710 = ORIENTED_EDGE ( 'NONE', *, *, #208, .F. ) ;
#711 = DIRECTION ( 'NONE',  ( 0.000000000000000000, 1.000000000000000000, 0.000000000000000000 ) ) ;
#712 = CARTESIAN_POINT ( 'NONE',  ( -7.574999999986726351, -9.306953045986704254, -2.000000000000000000 ) ) ;
#713 = ORIENTED_EDGE ( 'NONE', *, *, #34, .F. ) ;
#714 = EDGE_CURVE ( 'NONE', #443, #451, #117, .T. ) ;
#715 = VERTEX_POINT ( 'NONE', #67 ) ;
#716 = AXIS2_PLACEMENT_3D ( 'NONE', #280, #184, #763 ) ;
#717 =( GEOMETRIC_REPRESENTATION_CONTEXT ( 3 ) GLOBAL_UNCERTAINTY_ASSIGNED_CONTEXT ( ( #765 ) ) GLOBAL_UNIT_ASSIGNED_CONTEXT ( ( #662, #369, #490 ) ) REPRESENTATION_CONTEXT ( 'NONE', 'WORKASPACE' ) );
#718 = CARTESIAN_POINT ( 'NONE',  ( 2.099999999917547822, -12.00000000000000000, -2.000000000000000000 ) ) ;
#719 = CARTESIAN_POINT ( 'NONE',  ( 6.099999999917548266, -19.99999999999999645, 9.000000000000001776 ) ) ;
#720 = ORIENTED_EDGE ( 'NONE', *, *, #701, .T. ) ;
#721 = EDGE_CURVE ( 'NONE', #578, #443, #601, .T. ) ;
#722 = CARTESIAN_POINT ( 'NONE',  ( 2.099999999917547822, -20.00000000000000000, 9.000000000000001776 ) ) ;
#723 = DIRECTION ( 'NONE',  ( -0.000000000000000000, -0.000000000000000000, -1.000000000000000000 ) ) ;
#724 = CARTESIAN_POINT ( 'NONE',  ( 0.000000000000000000, 0.000000000000000000, 9.000000000000001776 ) ) ;
#725 = EDGE_LOOP ( 'NONE', ( #760, #627, #43, #500 ) ) ;
#726 = CARTESIAN_POINT ( 'NONE',  ( -1.734723475976807410E-14, -20.00000000000000355, -2.000000000000000000 ) ) ;
#727 = EDGE_CURVE ( 'NONE', #512, #150, #497, .T. ) ;
#728 = CARTESIAN_POINT ( 'NONE',  ( -12.00000000000000178, 0.000000000000000000, 9.000000000000001776 ) ) ;
#729 = AXIS2_PLACEMENT_3D ( 'NONE', #619, #202, #371 ) ;
#730 = AXIS2_PLACEMENT_3D ( 'NONE', #719, #408, #651 ) ;
#731 = LOCAL_TIME ( 19, 2, 25.00000000000000000, #456 ) ;
#732 = CARTESIAN_POINT ( 'NONE',  ( -2.099999999917547822, -12.00000000000000000, 9.000000000000001776 ) ) ;
#733 = LINE ( 'NONE', #129, #562 ) ;
#734 = CARTESIAN_POINT ( 'NONE',  ( -2.099999999917547822, -17.39999999996515712, 4.500000000000000888 ) ) ;
#735 = FACE_BOUND ( 'NONE', #635, .T. ) ;
#736 = EDGE_CURVE ( 'NONE', #740, #240, #534, .T. ) ;
#737 = VECTOR ( 'NONE', #409, 1000.000000000000000 ) ;
#738 = AXIS2_PLACEMENT_3D ( 'NONE', #768, #650, #125 ) ;
#739 = LINE ( 'NONE', #609, #40 ) ;
#740 = VERTEX_POINT ( 'NONE', #540 ) ;
#741 = ORIENTED_EDGE ( 'NONE', *, *, #145, .T. ) ;
#742 = CARTESIAN_POINT ( 'NONE',  ( 0.000000000000000000, 0.000000000000000000, 9.000000000000001776 ) ) ;
#743 = ORIENTED_EDGE ( 'NONE', *, *, #463, .T. ) ;
#744 = CARTESIAN_POINT ( 'NONE',  ( -10.09999999998229825, -12.40927072798227115, 9.000000000000001776 ) ) ;
#745 = ADVANCED_FACE ( 'NONE', ( #9 ), #243, .T. ) ;
#746 = CARTESIAN_POINT ( 'NONE',  ( -2.099999999917547822, -20.00000000000000000, -2.000000000000000000 ) ) ;
#747 = ORIENTED_EDGE ( 'NONE', *, *, #663, .T. ) ;
#748 = ORIENTED_EDGE ( 'NONE', *, *, #297, .T. ) ;
#749 = DATE_TIME_ROLE ( 'classification_date' ) ;
#750 = CARTESIAN_POINT ( 'NONE',  ( 2.099999999917547822, -14.59999999992857944, 4.500000000000000888 ) ) ;
#751 = VECTOR ( 'NONE', #546, 1000.000000000000000 ) ;
#752 = EDGE_CURVE ( 'NONE', #209, #175, #545, .T. ) ;
#753 = EDGE_LOOP ( 'NONE', ( #630, #506, #344, #567 ) ) ;
#754 = AXIS2_PLACEMENT_3D ( 'NONE', #617, #76, #479 ) ;
#755 = ORIENTED_EDGE ( 'NONE', *, *, #218, .F. ) ;
#756 = VERTEX_POINT ( 'NONE', #666 ) ;
#757 = ORIENTED_EDGE ( 'NONE', *, *, #667, .F. ) ;
#758 = EDGE_LOOP ( 'NONE', ( #597, #278, #279, #757 ) ) ;
#759 = APPROVAL_ROLE ( '' ) ;
#760 = ORIENTED_EDGE ( 'NONE', *, *, #736, .T. ) ;
#761 = EDGE_CURVE ( 'NONE', #29, #451, #739, .T. ) ;
#762 = LINE ( 'NONE', #226, #549 ) ;
#763 = DIRECTION ( 'NONE',  ( 0.000000000000000000, 0.000000000000000000, 1.000000000000000000 ) ) ;
#764 = VECTOR ( 'NONE', #111, 1000.000000000000000 ) ;
#765 = UNCERTAINTY_MEASURE_WITH_UNIT (LENGTH_MEASURE( 1.000000000000000082E-05 ), #662, 'distance_accuracy_value', 'NONE');
#766 = PLANE ( 'NONE',  #194 ) ;
#767 = LINE ( 'NONE', #772, #468 ) ;
#768 = CARTESIAN_POINT ( 'NONE',  ( 0.000000000000000000, 0.000000000000000000, 9.000000000000001776 ) ) ;
#769 = DIRECTION ( 'NONE',  ( 0.000000000000000000, 0.000000000000000000, -1.000000000000000000 ) ) ;
#770 = ORIENTED_EDGE ( 'NONE', *, *, #277, .F. ) ;
#771 = ORIENTED_EDGE ( 'NONE', *, *, #600, .T. ) ;
#772 = CARTESIAN_POINT ( 'NONE',  ( 2.099999999917547822, 0.000000000000000000, -2.000000000000000000 ) ) ;
#773 = PERSON_AND_ORGANIZATION_ROLE ( 'creator' ) ;
#774 = CARTESIAN_POINT ( 'NONE',  ( 0.000000000000000000, 0.000000000000000000, 9.000000000000001776 ) ) ;
#775 = ADVANCED_FACE ( 'NONE', ( #678 ), #320, .F. ) ;
ENDSEC;
END-ISO-10303-21;
