ISO-10303-21;
HEADER;
FILE_DESCRIPTION (( 'STEP AP203' ),
    '1' );
FILE_NAME ('¶æ»ú¹Ì¶¨½Å.STEP',
    '2026-07-29T14:02:21',
    ( '' ),
    ( '' ),
    'SwSTEP 2.0',
    'SolidWorks 2024',
    '' );
FILE_SCHEMA (( 'CONFIG_CONTROL_DESIGN' ));
ENDSEC;

DATA;
#1 = EDGE_CURVE ( 'NONE', #312, #45, #46, .T. ) ;
#2 = DIRECTION ( 'NONE',  ( 0.000000000000000000, -0.000000000000000000, 1.000000000000000000 ) ) ;
#3 = ORIENTED_EDGE ( 'NONE', *, *, #399, .F. ) ;
#4 = APPLICATION_CONTEXT ( 'configuration controlled 3d designs of mechanical parts and assemblies' ) ;
#5 = ORIENTED_EDGE ( 'NONE', *, *, #319, .T. ) ;
#6 = CIRCLE ( 'NONE', #90, 1.249999999999999334 ) ;
#7 = VECTOR ( 'NONE', #8, 1000.000000000000000 ) ;
#8 = DIRECTION ( 'NONE',  ( 0.000000000000000000, 1.000000000000000000, 0.000000000000000000 ) ) ;
#9 = CARTESIAN_POINT ( 'NONE',  ( 3.800000000000025580, 15.00000000000000000, 0.000000000000000000 ) ) ;
#10 = ADVANCED_FACE ( 'NONE', ( #86 ), #240, .F. ) ;
#11 = DIRECTION ( 'NONE',  ( 0.000000000000000000, 0.000000000000000000, -1.000000000000000000 ) ) ;
#12 = COORDINATED_UNIVERSAL_TIME_OFFSET ( 8, 0, .AHEAD. ) ;
#13 = PLANE ( 'NONE',  #136 ) ;
#14 = PERSON ( 'æœª', 'æœª', 'æœª', ('æœª'), ('æœª'), ('æœª') ) ;
#15 = VECTOR ( 'NONE', #257, 1000.000000000000000 ) ;
#16 = AXIS2_PLACEMENT_3D ( 'NONE', #441, #56, #400 ) ;
#17 = PERSON_AND_ORGANIZATION ( #14, #64 ) ;
#18 = CARTESIAN_POINT ( 'NONE',  ( 0.000000000000000000, 0.000000000000000000, 12.00000000000000355 ) ) ;
#19 = COORDINATED_UNIVERSAL_TIME_OFFSET ( 8, 0, .AHEAD. ) ;
#20 = CC_DESIGN_PERSON_AND_ORGANIZATION_ASSIGNMENT ( #475, #365, ( #71 ) ) ;
#21 = ORIENTED_EDGE ( 'NONE', *, *, #491, .F. ) ;
#22 = LINE ( 'NONE', #293, #171 ) ;
#23 = ORIENTED_EDGE ( 'NONE', *, *, #491, .T. ) ;
#24 = DIRECTION ( 'NONE',  ( -1.000000000000000000, 0.000000000000000000, 0.000000000000000000 ) ) ;
#25 = ORIENTED_EDGE ( 'NONE', *, *, #254, .T. ) ;
#26 = EDGE_CURVE ( 'NONE', #103, #80, #438, .T. ) ;
#27 = DIRECTION ( 'NONE',  ( 0.000000000000000000, -1.000000000000000000, 0.000000000000000000 ) ) ;
#28 = DIRECTION ( 'NONE',  ( -0.2248595066987583713, 0.9743911956946199604, 0.000000000000000000 ) ) ;
#29 = ORIENTED_EDGE ( 'NONE', *, *, #225, .T. ) ;
#30 = VECTOR ( 'NONE', #242, 1000.000000000000000 ) ;
#31 = FACE_OUTER_BOUND ( 'NONE', #498, .T. ) ;
#32 = CARTESIAN_POINT ( 'NONE',  ( 5.300000000000025580, 5.000000000000000888, 12.00000000000000355 ) ) ;
#33 = APPROVAL ( #329, 'æœª' ) ;
#34 = ORIENTED_EDGE ( 'NONE', *, *, #101, .T. ) ;
#35 = CARTESIAN_POINT ( 'NONE',  ( 11.00000000000000000, 7.000000000000000000, -20.22374841615668473 ) ) ;
#36 = ORIENTED_EDGE ( 'NONE', *, *, #41, .F. ) ;
#37 = CARTESIAN_POINT ( 'NONE',  ( 11.00000000000000000, 7.000000000000000000, 12.00000000000000355 ) ) ;
#38 = CLOSED_SHELL ( 'NONE', ( #177, #10, #206, #130, #116, #61, #361, #238, #420, #437, #406, #292, #462, #87 ) ) ;
#39 = ORIENTED_EDGE ( 'NONE', *, *, #55, .T. ) ;
#40 = AXIS2_PLACEMENT_3D ( 'NONE', #157, #191, #383 ) ;
#41 = EDGE_CURVE ( 'NONE', #77, #413, #6, .T. ) ;
#42 = DIRECTION ( 'NONE',  ( -1.000000000000000000, 0.000000000000000000, 0.000000000000000000 ) ) ;
#43 = ORIENTED_EDGE ( 'NONE', *, *, #1, .F. ) ;
#44 = CYLINDRICAL_SURFACE ( 'NONE', #153, 1.499999999999999556 ) ;
#45 = VERTEX_POINT ( 'NONE', #125 ) ;
#46 = LINE ( 'NONE', #442, #30 ) ;
#47 = AXIS2_PLACEMENT_3D ( 'NONE', #334, #250, #336 ) ;
#48 =( NAMED_UNIT ( * ) SI_UNIT ( $, .STERADIAN. ) SOLID_ANGLE_UNIT ( ) );
#49 = EDGE_CURVE ( 'NONE', #379, #353, #131, .T. ) ;
#50 = DIRECTION ( 'NONE',  ( -0.000000000000000000, -0.000000000000000000, -1.000000000000000000 ) ) ;
#51 = DIRECTION ( 'NONE',  ( -0.2248595066987583713, 0.9743911956946199604, 0.000000000000000000 ) ) ;
#52 = LINE ( 'NONE', #18, #478 ) ;
#53 = COORDINATED_UNIVERSAL_TIME_OFFSET ( 8, 0, .AHEAD. ) ;
#54 = FACE_OUTER_BOUND ( 'NONE', #463, .T. ) ;
#55 = EDGE_CURVE ( 'NONE', #45, #103, #52, .T. ) ;
#56 = DIRECTION ( 'NONE',  ( 0.000000000000000000, 0.000000000000000000, 1.000000000000000000 ) ) ;
#57 = DIRECTION ( 'NONE',  ( 0.000000000000000000, 0.000000000000000000, 1.000000000000000000 ) ) ;
#58 = CARTESIAN_POINT ( 'NONE',  ( 5.300000000000025580, 15.00000000000000000, 12.00000000000000355 ) ) ;
#59 = ORIENTED_EDGE ( 'NONE', *, *, #448, .F. ) ;
#60 = FACE_OUTER_BOUND ( 'NONE', #341, .T. ) ;
#61 = ADVANCED_FACE ( 'NONE', ( #360 ), #13, .F. ) ;
#62 = AXIS2_PLACEMENT_3D ( 'NONE', #246, #211, #275 ) ;
#63 = CIRCLE ( 'NONE', #160, 1.499999999999999556 ) ;
#64 = ORGANIZATION ( 'æœª', 'æœª', '' ) ;
#65 = CARTESIAN_POINT ( 'NONE',  ( 8.000000000000007105, -1.200000000000000030E-05, 6.000000000000001776 ) ) ;
#66 = CARTESIAN_POINT ( 'NONE',  ( 3.800000000000025580, 15.00000000000000000, 12.00000000000000355 ) ) ;
#67 = ORIENTED_EDGE ( 'NONE', *, *, #414, .T. ) ;
#68 = DIRECTION ( 'NONE',  ( -1.000000000000000000, 0.000000000000000000, 0.000000000000000000 ) ) ;
#69 = APPROVAL ( #94, 'æœª' ) ;
#70 = DIRECTION ( 'NONE',  ( 0.000000000000000000, 0.000000000000000000, 1.000000000000000000 ) ) ;
#71 = PRODUCT_DEFINITION_FORMATION_WITH_SPECIFIED_SOURCE ( 'ä»', '', #355, .NOT_KNOWN. ) ;
#72 = VERTEX_POINT ( 'NONE', #440 ) ;
#73 = CARTESIAN_POINT ( 'NONE',  ( 8.000000000000007105, 7.000000000000000000, 7.250000000000000888 ) ) ;
#74 = ORIENTED_EDGE ( 'NONE', *, *, #468, .F. ) ;
#75 = DIRECTION ( 'NONE',  ( -0.000000000000000000, 0.000000000000000000, -1.000000000000000000 ) ) ;
#76 = EDGE_CURVE ( 'NONE', #84, #300, #417, .T. ) ;
#77 = VERTEX_POINT ( 'NONE', #175 ) ;
#78 = DIRECTION ( 'NONE',  ( -1.000000000000000000, 0.000000000000000000, 0.000000000000000000 ) ) ;
#79 = CIRCLE ( 'NONE', #170, 1.249999999999999334 ) ;
#80 = VERTEX_POINT ( 'NONE', #366 ) ;
#81 = VECTOR ( 'NONE', #155, 1000.000000000000000 ) ;
#82 = APPROVAL_PERSON_ORGANIZATION ( #404, #33, #287 ) ;
#83 = DIRECTION ( 'NONE',  ( -0.000000000000000000, -0.000000000000000000, -1.000000000000000000 ) ) ;
#84 = VERTEX_POINT ( 'NONE', #330 ) ;
#85 = CALENDAR_DATE ( 2026, 29, 7 ) ;
#86 = FACE_OUTER_BOUND ( 'NONE', #235, .T. ) ;
#87 = ADVANCED_FACE ( 'NONE', ( #54 ), #167, .T. ) ;
#88 =( LENGTH_UNIT ( ) NAMED_UNIT ( * ) SI_UNIT ( .MILLI., .METRE. ) );
#89 = PLANE ( 'NONE',  #62 ) ;
#90 = AXIS2_PLACEMENT_3D ( 'NONE', #398, #474, #363 ) ;
#91 = LOCAL_TIME ( 22, 2, 21.00000000000000000, #402 ) ;
#92 = LINE ( 'NONE', #433, #7 ) ;
#93 = DIRECTION ( 'NONE',  ( 0.000000000000000000, 0.000000000000000000, 1.000000000000000000 ) ) ;
#94 = APPROVAL_STATUS ( 'not_yet_approved' ) ;
#95 = ORIENTED_EDGE ( 'NONE', *, *, #333, .F. ) ;
#96 = EDGE_CURVE ( 'NONE', #80, #72, #403, .T. ) ;
#97 = LINE ( 'NONE', #284, #385 ) ;
#98 = DIRECTION ( 'NONE',  ( -0.000000000000000000, -0.000000000000000000, -1.000000000000000000 ) ) ;
#99 = SECURITY_CLASSIFICATION_LEVEL ( 'unclassified' ) ;
#100 = CYLINDRICAL_SURFACE ( 'NONE', #239, 1.249999999999999334 ) ;
#101 = EDGE_CURVE ( 'NONE', #291, #379, #393, .T. ) ;
#102 = CARTESIAN_POINT ( 'NONE',  ( 8.000000000000007105, 0.000000000000000000, 4.750000000000002665 ) ) ;
#103 = VERTEX_POINT ( 'NONE', #173 ) ;
#104 = DIRECTION ( 'NONE',  ( 0.000000000000000000, -1.000000000000000000, 0.000000000000000000 ) ) ;
#105 = EDGE_LOOP ( 'NONE', ( #192, #458, #432, #95 ) ) ;
#106 = LOCAL_TIME ( 22, 2, 21.00000000000000000, #53 ) ;
#107 = DIRECTION ( 'NONE',  ( -0.000000000000000000, -1.000000000000000000, -0.000000000000000000 ) ) ;
#108 = EDGE_LOOP ( 'NONE', ( #218, #422, #429, #258 ) ) ;
#109 = DIRECTION ( 'NONE',  ( 0.000000000000000000, 0.000000000000000000, 1.000000000000000000 ) ) ;
#110 = CC_DESIGN_PERSON_AND_ORGANIZATION_ASSIGNMENT ( #17, #172, ( #71 ) ) ;
#111 = MANIFOLD_SOLID_BREP ( '\X2\52079664\X0\-\X2\62c94f38\X0\1', #38 ) ;
#112 = DIRECTION ( 'NONE',  ( 1.000000000000000000, 0.000000000000000000, 0.000000000000000000 ) ) ;
#113 = AXIS2_PLACEMENT_3D ( 'NONE', #446, #104, #253 ) ;
#114 = DIRECTION ( 'NONE',  ( 0.000000000000000000, 1.000000000000000000, 0.000000000000000000 ) ) ;
#115 = ORIENTED_EDGE ( 'NONE', *, *, #340, .F. ) ;
#116 = ADVANCED_FACE ( 'NONE', ( #328, #133, #286 ), #89, .T. ) ;
#117 = CARTESIAN_POINT ( 'NONE',  ( 0.000000000000000000, 0.000000000000000000, 12.00000000000000355 ) ) ;
#118 = EDGE_LOOP ( 'NONE', ( #115, #267 ) ) ;
#119 = CARTESIAN_POINT ( 'NONE',  ( 8.000000000000007105, 0.000000000000000000, 7.250000000000000888 ) ) ;
#120 = ORIENTED_EDGE ( 'NONE', *, *, #399, .T. ) ;
#121 = LINE ( 'NONE', #222, #394 ) ;
#122 = VERTEX_POINT ( 'NONE', #102 ) ;
#123 = AXIS2_PLACEMENT_3D ( 'NONE', #445, #367, #24 ) ;
#124 = ORIENTED_EDGE ( 'NONE', *, *, #55, .F. ) ;
#125 = CARTESIAN_POINT ( 'NONE',  ( 0.000000000000000000, 0.000000000000000000, 12.00000000000000355 ) ) ;
#126 = APPROVAL_DATE_TIME ( #159, #184 ) ;
#127 = CARTESIAN_POINT ( 'NONE',  ( 3.800000000000025580, 5.000000000000000888, 12.00000000000000355 ) ) ;
#128 = VECTOR ( 'NONE', #350, 1000.000000000000000 ) ;
#129 = CALENDAR_DATE ( 2026, 29, 7 ) ;
#130 = ADVANCED_FACE ( 'NONE', ( #60, #144, #407 ), #259, .F. ) ;
#131 = LINE ( 'NONE', #202, #376 ) ;
#132 = LINE ( 'NONE', #436, #427 ) ;
#133 = FACE_OUTER_BOUND ( 'NONE', #408, .T. ) ;
#134 = DATE_TIME_ROLE ( 'classification_date' ) ;
#135 = CARTESIAN_POINT ( 'NONE',  ( 3.800000000000025580, 5.000000000000000888, 0.000000000000000000 ) ) ;
#136 = AXIS2_PLACEMENT_3D ( 'NONE', #467, #357, #11 ) ;
#137 = SECURITY_CLASSIFICATION ( '', '', #99 ) ;
#138 = FACE_OUTER_BOUND ( 'NONE', #108, .T. ) ;
#139 = EDGE_CURVE ( 'NONE', #345, #122, #79, .T. ) ;
#140 = DIRECTION ( 'NONE',  ( 0.000000000000000000, 1.000000000000000000, 0.000000000000000000 ) ) ;
#141 = ORIENTED_EDGE ( 'NONE', *, *, #327, .F. ) ;
#142 = CARTESIAN_POINT ( 'NONE',  ( 5.300000000000025580, 5.000000000000000888, 12.00000000000000355 ) ) ;
#143 = ORIENTED_EDGE ( 'NONE', *, *, #145, .T. ) ;
#144 = FACE_BOUND ( 'NONE', #118, .T. ) ;
#145 = EDGE_CURVE ( 'NONE', #278, #411, #322, .T. ) ;
#146 = DIRECTION ( 'NONE',  ( 1.000000000000000000, 0.000000000000000000, 0.000000000000000000 ) ) ;
#147 = ORIENTED_EDGE ( 'NONE', *, *, #482, .F. ) ;
#148 = CYLINDRICAL_SURFACE ( 'NONE', #332, 1.249999999999999334 ) ;
#149 = SHAPE_DEFINITION_REPRESENTATION ( #276, #247 ) ;
#150 = ORIENTED_EDGE ( 'NONE', *, *, #333, .T. ) ;
#151 = EDGE_CURVE ( 'NONE', #353, #377, #444, .T. ) ;
#152 = CARTESIAN_POINT ( 'NONE',  ( 5.300000000000025580, 5.000000000000000888, 0.000000000000000000 ) ) ;
#153 = AXIS2_PLACEMENT_3D ( 'NONE', #224, #425, #78 ) ;
#154 = ORIENTED_EDGE ( 'NONE', *, *, #96, .F. ) ;
#155 = DIRECTION ( 'NONE',  ( -0.000000000000000000, -0.000000000000000000, -1.000000000000000000 ) ) ;
#156 = ORIENTED_EDGE ( 'NONE', *, *, #319, .F. ) ;
#157 = CARTESIAN_POINT ( 'NONE',  ( 3.800000000000025580, 5.000000000000000888, 0.000000000000000000 ) ) ;
#158 = ORIENTED_EDGE ( 'NONE', *, *, #26, .T. ) ;
#159 = DATE_AND_TIME ( #129, #91 ) ;
#160 = AXIS2_PLACEMENT_3D ( 'NONE', #135, #181, #405 ) ;
#161 = EDGE_CURVE ( 'NONE', #227, #481, #256, .T. ) ;
#162 = EDGE_LOOP ( 'NONE', ( #156, #143, #358, #141 ) ) ;
#163 = AXIS2_PLACEMENT_3D ( 'NONE', #386, #311, #42 ) ;
#164 = LINE ( 'NONE', #326, #203 ) ;
#165 = DIRECTION ( 'NONE',  ( 0.000000000000000000, -1.000000000000000000, 0.000000000000000000 ) ) ;
#166 = DIRECTION ( 'NONE',  ( -0.000000000000000000, -1.000000000000000000, -0.000000000000000000 ) ) ;
#167 = PLANE ( 'NONE',  #493 ) ;
#168 = CALENDAR_DATE ( 2026, 29, 7 ) ;
#169 = CARTESIAN_POINT ( 'NONE',  ( 8.000000000000007105, 7.000000000000000000, 6.000000000000001776 ) ) ;
#170 = AXIS2_PLACEMENT_3D ( 'NONE', #480, #107, #109 ) ;
#171 = VECTOR ( 'NONE', #290, 1000.000000000000000 ) ;
#172 = PERSON_AND_ORGANIZATION_ROLE ( 'creator' ) ;
#173 = CARTESIAN_POINT ( 'NONE',  ( 0.000000000000000000, 0.000000000000000000, 0.000000000000000000 ) ) ;
#174 = DATE_AND_TIME ( #249, #496 ) ;
#175 = CARTESIAN_POINT ( 'NONE',  ( 8.000000000000007105, 7.000000000000000000, 4.750000000000002665 ) ) ;
#176 = CARTESIAN_POINT ( 'NONE',  ( 0.000000000000000000, 20.00000000000000000, 0.000000000000000000 ) ) ;
#177 = ADVANCED_FACE ( 'NONE', ( #31 ), #100, .F. ) ;
#178 = ORIENTED_EDGE ( 'NONE', *, *, #76, .T. ) ;
#179 = VECTOR ( 'NONE', #196, 1000.000000000000000 ) ;
#180 = APPLICATION_CONTEXT ( 'configuration controlled 3d designs of mechanical parts and assemblies' ) ;
#181 = DIRECTION ( 'NONE',  ( 0.000000000000000000, 0.000000000000000000, 1.000000000000000000 ) ) ;
#182 = EDGE_LOOP ( 'NONE', ( #270, #124, #43, #67 ) ) ;
#183 = DIRECTION ( 'NONE',  ( 0.000000000000000000, 0.000000000000000000, -1.000000000000000000 ) ) ;
#184 = APPROVAL ( #469, 'æœª' ) ;
#185 = LINE ( 'NONE', #266, #295 ) ;
#186 = ORIENTED_EDGE ( 'NONE', *, *, #26, .F. ) ;
#187 = DIRECTION ( 'NONE',  ( 0.000000000000000000, 1.000000000000000000, 0.000000000000000000 ) ) ;
#188 = CARTESIAN_POINT ( 'NONE',  ( 3.800000000000025580, 15.00000000000000000, 12.00000000000000355 ) ) ;
#189 = EDGE_CURVE ( 'NONE', #122, #77, #369, .T. ) ;
#190 = ORIENTED_EDGE ( 'NONE', *, *, #477, .F. ) ;
#191 = DIRECTION ( 'NONE',  ( 0.000000000000000000, 0.000000000000000000, 1.000000000000000000 ) ) ;
#192 = ORIENTED_EDGE ( 'NONE', *, *, #356, .F. ) ;
#193 = VECTOR ( 'NONE', #208, 1000.000000000000000 ) ;
#194 = CARTESIAN_POINT ( 'NONE',  ( 2.300000000000026024, 5.000000000000000888, 12.00000000000000355 ) ) ;
#195 = ORIENTED_EDGE ( 'NONE', *, *, #216, .T. ) ;
#196 = DIRECTION ( 'NONE',  ( -1.000000000000000000, -0.000000000000000000, -0.000000000000000000 ) ) ;
#197 = ORIENTED_EDGE ( 'NONE', *, *, #308, .F. ) ;
#198 = CC_DESIGN_DATE_AND_TIME_ASSIGNMENT ( #431, #464, ( #248 ) ) ;
#199 = LINE ( 'NONE', #302, #128 ) ;
#200 = VERTEX_POINT ( 'NONE', #176 ) ;
#201 = MECHANICAL_CONTEXT ( 'NONE', #4, 'mechanical' ) ;
#202 = CARTESIAN_POINT ( 'NONE',  ( 8.000000000000000000, 20.00000000000000000, 12.00000000000000355 ) ) ;
#203 = VECTOR ( 'NONE', #51, 999.9999999999998863 ) ;
#204 = CARTESIAN_POINT ( 'NONE',  ( 2.300000000000026024, 15.00000000000000000, 12.00000000000000355 ) ) ;
#205 = ORIENTED_EDGE ( 'NONE', *, *, #189, .F. ) ;
#206 = ADVANCED_FACE ( 'NONE', ( #339 ), #288, .F. ) ;
#207 = ORIENTED_EDGE ( 'NONE', *, *, #145, .F. ) ;
#208 = DIRECTION ( 'NONE',  ( 1.000000000000000000, 0.000000000000000000, 0.000000000000000000 ) ) ;
#209 = CIRCLE ( 'NONE', #231, 1.499999999999999556 ) ;
#210 = PERSON_AND_ORGANIZATION ( #14, #64 ) ;
#211 = DIRECTION ( 'NONE',  ( 0.000000000000000000, 0.000000000000000000, -1.000000000000000000 ) ) ;
#212 = CARTESIAN_POINT ( 'NONE',  ( 0.000000000000000000, 0.000000000000000000, 12.00000000000000355 ) ) ;
#213 = DIRECTION ( 'NONE',  ( 1.000000000000000000, 0.000000000000000000, 0.000000000000000000 ) ) ;
#214 = CC_DESIGN_APPROVAL ( #69, ( #71 ) ) ;
#215 = CARTESIAN_POINT ( 'NONE',  ( 8.000000000000007105, 7.000000000000000000, 6.000000000000001776 ) ) ;
#216 = EDGE_CURVE ( 'NONE', #325, #382, #63, .T. ) ;
#217 = FACE_OUTER_BOUND ( 'NONE', #495, .T. ) ;
#218 = ORIENTED_EDGE ( 'NONE', *, *, #233, .T. ) ;
#219 = DIRECTION ( 'NONE',  ( -0.000000000000000000, -0.000000000000000000, -1.000000000000000000 ) ) ;
#220 = ORIENTED_EDGE ( 'NONE', *, *, #356, .T. ) ;
#221 = CIRCLE ( 'NONE', #364, 1.499999999999999556 ) ;
#222 = CARTESIAN_POINT ( 'NONE',  ( 0.000000000000000000, 0.000000000000000000, 12.00000000000000355 ) ) ;
#223 = ORIENTED_EDGE ( 'NONE', *, *, #151, .F. ) ;
#224 = CARTESIAN_POINT ( 'NONE',  ( 3.800000000000025580, 15.00000000000000000, 12.00000000000000355 ) ) ;
#225 = EDGE_CURVE ( 'NONE', #122, #345, #324, .T. ) ;
#226 = COORDINATED_UNIVERSAL_TIME_OFFSET ( 8, 0, .AHEAD. ) ;
#227 = VERTEX_POINT ( 'NONE', #58 ) ;
#228 = CARTESIAN_POINT ( 'NONE',  ( 2.300000000000026024, 5.000000000000000888, 0.000000000000000000 ) ) ;
#229 = ORIENTED_EDGE ( 'NONE', *, *, #477, .T. ) ;
#230 = CYLINDRICAL_SURFACE ( 'NONE', #163, 1.499999999999999556 ) ;
#231 = AXIS2_PLACEMENT_3D ( 'NONE', #459, #268, #264 ) ;
#232 = ORIENTED_EDGE ( 'NONE', *, *, #381, .T. ) ;
#233 = EDGE_CURVE ( 'NONE', #377, #200, #22, .T. ) ;
#234 = CARTESIAN_POINT ( 'NONE',  ( 8.000000000000000000, 20.00000000000000000, 0.000000000000000000 ) ) ;
#235 = EDGE_LOOP ( 'NONE', ( #120, #5, #426, #470 ) ) ;
#236 = DIRECTION ( 'NONE',  ( 0.000000000000000000, 0.000000000000000000, 1.000000000000000000 ) ) ;
#237 = EDGE_LOOP ( 'NONE', ( #244, #310 ) ) ;
#238 = ADVANCED_FACE ( 'NONE', ( #138 ), #331, .F. ) ;
#239 = AXIS2_PLACEMENT_3D ( 'NONE', #65, #140, #375 ) ;
#240 = CYLINDRICAL_SURFACE ( 'NONE', #313, 1.499999999999999556 ) ;
#241 = VECTOR ( 'NONE', #451, 1000.000000000000000 ) ;
#242 = DIRECTION ( 'NONE',  ( -0.000000000000000000, -1.000000000000000000, -0.000000000000000000 ) ) ;
#243 = APPROVAL_ROLE ( '' ) ;
#244 = ORIENTED_EDGE ( 'NONE', *, *, #139, .F. ) ;
#245 = PERSON_AND_ORGANIZATION ( #14, #64 ) ;
#246 = CARTESIAN_POINT ( 'NONE',  ( 0.000000000000000000, 0.000000000000000000, 0.000000000000000000 ) ) ;
#247 = ADVANCED_BREP_SHAPE_REPRESENTATION ( '\X2\8235673a56fa5b9a811a\X0\', ( #111, #16 ), #354 ) ;
#248 = PRODUCT_DEFINITION ( 'æœ', '', #71, #390 ) ;
#249 = CALENDAR_DATE ( 2026, 29, 7 ) ;
#250 = DIRECTION ( 'NONE',  ( -0.000000000000000000, -1.000000000000000000, -0.000000000000000000 ) ) ;
#251 = DIRECTION ( 'NONE',  ( -1.000000000000000000, 0.000000000000000000, -0.000000000000000000 ) ) ;
#252 = ORIENTED_EDGE ( 'NONE', *, *, #381, .F. ) ;
#253 = DIRECTION ( 'NONE',  ( 0.000000000000000000, -0.000000000000000000, -1.000000000000000000 ) ) ;
#254 = EDGE_CURVE ( 'NONE', #413, #77, #455, .T. ) ;
#255 = AXIS2_PLACEMENT_3D ( 'NONE', #212, #415, #251 ) ;
#256 = CIRCLE ( 'NONE', #281, 1.499999999999999556 ) ;
#257 = DIRECTION ( 'NONE',  ( -0.000000000000000000, -0.000000000000000000, -1.000000000000000000 ) ) ;
#258 = ORIENTED_EDGE ( 'NONE', *, *, #151, .T. ) ;
#259 = PLANE ( 'NONE',  #255 ) ;
#260 = CARTESIAN_POINT ( 'NONE',  ( 3.800000000000025580, 15.00000000000000000, 0.000000000000000000 ) ) ;
#261 = ORIENTED_EDGE ( 'NONE', *, *, #233, .F. ) ;
#262 = EDGE_CURVE ( 'NONE', #411, #325, #297, .T. ) ;
#263 = LOCAL_TIME ( 22, 2, 21.00000000000000000, #226 ) ;
#264 = DIRECTION ( 'NONE',  ( -1.000000000000000000, 0.000000000000000000, 0.000000000000000000 ) ) ;
#265 = ORIENTED_EDGE ( 'NONE', *, *, #76, .F. ) ;
#266 = CARTESIAN_POINT ( 'NONE',  ( 2.300000000000026024, 15.00000000000000000, 12.00000000000000355 ) ) ;
#267 = ORIENTED_EDGE ( 'NONE', *, *, #161, .F. ) ;
#268 = DIRECTION ( 'NONE',  ( 0.000000000000000000, 0.000000000000000000, 1.000000000000000000 ) ) ;
#269 = CC_DESIGN_PERSON_AND_ORGANIZATION_ASSIGNMENT ( #245, #359, ( #355 ) ) ;
#270 = ORIENTED_EDGE ( 'NONE', *, *, #468, .T. ) ;
#271 = VECTOR ( 'NONE', #57, 1000.000000000000000 ) ;
#272 = FACE_OUTER_BOUND ( 'NONE', #460, .T. ) ;
#273 = ORIENTED_EDGE ( 'NONE', *, *, #254, .F. ) ;
#274 =( NAMED_UNIT ( * ) PLANE_ANGLE_UNIT ( ) SI_UNIT ( $, .RADIAN. ) );
#275 = DIRECTION ( 'NONE',  ( -1.000000000000000000, 0.000000000000000000, -0.000000000000000000 ) ) ;
#276 = PRODUCT_DEFINITION_SHAPE ( 'NONE', 'NONE',  #248 ) ;
#277 = DIRECTION ( 'NONE',  ( 0.000000000000000000, 1.000000000000000000, 0.000000000000000000 ) ) ;
#278 = VERTEX_POINT ( 'NONE', #142 ) ;
#279 = VECTOR ( 'NONE', #93, 1000.000000000000000 ) ;
#280 = PERSON_AND_ORGANIZATION_ROLE ( 'creator' ) ;
#281 = AXIS2_PLACEMENT_3D ( 'NONE', #66, #485, #213 ) ;
#282 = DIRECTION ( 'NONE',  ( -1.000000000000000000, 0.000000000000000000, 0.000000000000000000 ) ) ;
#283 = CC_DESIGN_APPROVAL ( #33, ( #137 ) ) ;
#284 = CARTESIAN_POINT ( 'NONE',  ( 11.00000000000000000, 7.000000000000000000, 12.00000000000000355 ) ) ;
#285 = DIRECTION ( 'NONE',  ( -0.2248595066987583713, 0.9743911956946199604, -0.000000000000000000 ) ) ;
#286 = FACE_BOUND ( 'NONE', #352, .T. ) ;
#287 = APPROVAL_ROLE ( '' ) ;
#288 = CYLINDRICAL_SURFACE ( 'NONE', #123, 1.499999999999999556 ) ;
#289 = LOCAL_TIME ( 22, 2, 21.00000000000000000, #12 ) ;
#290 = DIRECTION ( 'NONE',  ( -1.000000000000000000, -0.000000000000000000, -0.000000000000000000 ) ) ;
#291 = VERTEX_POINT ( 'NONE', #294 ) ;
#292 = ADVANCED_FACE ( 'NONE', ( #217 ), #447, .T. ) ;
#293 = CARTESIAN_POINT ( 'NONE',  ( 0.000000000000000000, 20.00000000000000000, 0.000000000000000000 ) ) ;
#294 = CARTESIAN_POINT ( 'NONE',  ( 11.00000000000000000, 7.000000000000000000, 0.000000000000000000 ) ) ;
#295 = VECTOR ( 'NONE', #83, 1000.000000000000000 ) ;
#296 = APPROVAL_PERSON_ORGANIZATION ( #320, #184, #397 ) ;
#297 = LINE ( 'NONE', #483, #15 ) ;
#298 = ORIENTED_EDGE ( 'NONE', *, *, #346, .T. ) ;
#299 = FACE_OUTER_BOUND ( 'NONE', #162, .T. ) ;
#300 = VERTEX_POINT ( 'NONE', #450 ) ;
#301 = PRODUCT_RELATED_PRODUCT_CATEGORY ( 'detail', '', ( #355 ) ) ;
#302 = CARTESIAN_POINT ( 'NONE',  ( 5.300000000000025580, 15.00000000000000000, 12.00000000000000355 ) ) ;
#303 = ORIENTED_EDGE ( 'NONE', *, *, #49, .T. ) ;
#304 = VECTOR ( 'NONE', #219, 1000.000000000000000 ) ;
#305 = CIRCLE ( 'NONE', #40, 1.499999999999999556 ) ;
#306 = PLANE ( 'NONE',  #370 ) ;
#307 = EDGE_LOOP ( 'NONE', ( #3, #207 ) ) ;
#308 = EDGE_CURVE ( 'NONE', #481, #84, #185, .T. ) ;
#309 = CARTESIAN_POINT ( 'NONE',  ( 8.000000000000000000, 20.00000000000000000, 12.00000000000000355 ) ) ;
#310 = ORIENTED_EDGE ( 'NONE', *, *, #225, .F. ) ;
#311 = DIRECTION ( 'NONE',  ( -0.000000000000000000, -0.000000000000000000, -1.000000000000000000 ) ) ;
#312 = VERTEX_POINT ( 'NONE', #380 ) ;
#313 = AXIS2_PLACEMENT_3D ( 'NONE', #127, #98, #282 ) ;
#314 = VECTOR ( 'NONE', #187, 1000.000000000000000 ) ;
#315 = PERSON_AND_ORGANIZATION ( #14, #64 ) ;
#316 = EDGE_LOOP ( 'NONE', ( #178, #150 ) ) ;
#317 = UNCERTAINTY_MEASURE_WITH_UNIT (LENGTH_MEASURE( 1.000000000000000082E-05 ), #88, 'distance_accuracy_value', 'NONE');
#318 = EDGE_LOOP ( 'NONE', ( #389, #220, #265, #197 ) ) ;
#319 = EDGE_CURVE ( 'NONE', #278, #382, #378, .T. ) ;
#320 = PERSON_AND_ORGANIZATION ( #14, #64 ) ;
#321 = DIRECTION ( 'NONE',  ( 0.000000000000000000, -0.000000000000000000, -1.000000000000000000 ) ) ;
#322 = CIRCLE ( 'NONE', #484, 1.499999999999999556 ) ;
#323 = DIRECTION ( 'NONE',  ( -0.000000000000000000, 1.000000000000000000, -0.000000000000000000 ) ) ;
#324 = CIRCLE ( 'NONE', #47, 1.249999999999999334 ) ;
#325 = VERTEX_POINT ( 'NONE', #228 ) ;
#326 = CARTESIAN_POINT ( 'NONE',  ( 8.000000000000000000, 20.00000000000000000, 0.000000000000000000 ) ) ;
#327 = EDGE_CURVE ( 'NONE', #382, #325, #305, .T. ) ;
#328 = FACE_BOUND ( 'NONE', #316, .T. ) ;
#329 = APPROVAL_STATUS ( 'not_yet_approved' ) ;
#330 = CARTESIAN_POINT ( 'NONE',  ( 2.300000000000026024, 15.00000000000000000, 0.000000000000000000 ) ) ;
#331 = PLANE ( 'NONE',  #113 ) ;
#332 = AXIS2_PLACEMENT_3D ( 'NONE', #466, #277, #236 ) ;
#333 = EDGE_CURVE ( 'NONE', #300, #84, #487, .T. ) ;
#334 = CARTESIAN_POINT ( 'NONE',  ( 8.000000000000007105, 0.000000000000000000, 6.000000000000001776 ) ) ;
#335 = ORIENTED_EDGE ( 'NONE', *, *, #96, .T. ) ;
#336 = DIRECTION ( 'NONE',  ( 0.000000000000000000, 0.000000000000000000, 1.000000000000000000 ) ) ;
#337 = ORIENTED_EDGE ( 'NONE', *, *, #327, .T. ) ;
#338 = CARTESIAN_POINT ( 'NONE',  ( 8.000000000000007105, -1.200000000000000030E-05, 4.750000000000002665 ) ) ;
#339 = FACE_OUTER_BOUND ( 'NONE', #318, .T. ) ;
#340 = EDGE_CURVE ( 'NONE', #481, #227, #221, .T. ) ;
#341 = EDGE_LOOP ( 'NONE', ( #418, #232, #349, #303, #298 ) ) ;
#342 = DIRECTION ( 'NONE',  ( 1.000000000000000000, 0.000000000000000000, -0.000000000000000000 ) ) ;
#343 = ORIENTED_EDGE ( 'NONE', *, *, #139, .T. ) ;
#344 = DIRECTION ( 'NONE',  ( 1.000000000000000000, 0.000000000000000000, 0.000000000000000000 ) ) ;
#345 = VERTEX_POINT ( 'NONE', #119 ) ;
#346 = EDGE_CURVE ( 'NONE', #353, #312, #457, .T. ) ;
#347 = CC_DESIGN_SECURITY_CLASSIFICATION ( #137, ( #71 ) ) ;
#348 = DIRECTION ( 'NONE',  ( -0.000000000000000000, -0.000000000000000000, -1.000000000000000000 ) ) ;
#349 = ORIENTED_EDGE ( 'NONE', *, *, #482, .T. ) ;
#350 = DIRECTION ( 'NONE',  ( -0.000000000000000000, -0.000000000000000000, -1.000000000000000000 ) ) ;
#351 = DATE_AND_TIME ( #452, #263 ) ;
#352 = EDGE_LOOP ( 'NONE', ( #195, #337 ) ) ;
#353 = VERTEX_POINT ( 'NONE', #309 ) ;
#354 =( GEOMETRIC_REPRESENTATION_CONTEXT ( 3 ) GLOBAL_UNCERTAINTY_ASSIGNED_CONTEXT ( ( #317 ) ) GLOBAL_UNIT_ASSIGNED_CONTEXT ( ( #88, #274, #48 ) ) REPRESENTATION_CONTEXT ( 'NONE', 'WORKASPACE' ) );
#355 = PRODUCT ( '\X2\8235673a56fa5b9a811a\X0\', '\X2\8235673a56fa5b9a811a\X0\', '', ( #201 ) ) ;
#356 = EDGE_CURVE ( 'NONE', #227, #300, #199, .T. ) ;
#357 = DIRECTION ( 'NONE',  ( 1.000000000000000000, 0.000000000000000000, 0.000000000000000000 ) ) ;
#358 = ORIENTED_EDGE ( 'NONE', *, *, #262, .T. ) ;
#359 = PERSON_AND_ORGANIZATION_ROLE ( 'design_owner' ) ;
#360 = FACE_OUTER_BOUND ( 'NONE', #182, .T. ) ;
#361 = ADVANCED_FACE ( 'NONE', ( #453, #421 ), #306, .F. ) ;
#362 = DATE_AND_TIME ( #85, #106 ) ;
#363 = DIRECTION ( 'NONE',  ( 0.000000000000000000, 0.000000000000000000, -1.000000000000000000 ) ) ;
#364 = AXIS2_PLACEMENT_3D ( 'NONE', #188, #416, #344 ) ;
#365 = PERSON_AND_ORGANIZATION_ROLE ( 'design_supplier' ) ;
#366 = CARTESIAN_POINT ( 'NONE',  ( 11.00000000000000000, 1.224646799147355426E-16, 0.000000000000000000 ) ) ;
#367 = DIRECTION ( 'NONE',  ( -0.000000000000000000, -0.000000000000000000, -1.000000000000000000 ) ) ;
#368 = AXIS2_PLACEMENT_3D ( 'NONE', #9, #401, #434 ) ;
#369 = LINE ( 'NONE', #338, #314 ) ;
#370 = AXIS2_PLACEMENT_3D ( 'NONE', #117, #114, #2 ) ;
#371 = EDGE_LOOP ( 'NONE', ( #158, #335, #252, #39 ) ) ;
#372 = CARTESIAN_POINT ( 'NONE',  ( 8.000000000000000000, 20.00000000000000000, 12.00000000000000355 ) ) ;
#373 = DIRECTION ( 'NONE',  ( 0.9743911956946199604, 0.2248595066987583713, -0.000000000000000000 ) ) ;
#374 = CC_DESIGN_PERSON_AND_ORGANIZATION_ASSIGNMENT ( #315, #280, ( #248 ) ) ;
#375 = DIRECTION ( 'NONE',  ( 0.000000000000000000, 0.000000000000000000, 1.000000000000000000 ) ) ;
#376 = VECTOR ( 'NONE', #285, 999.9999999999998863 ) ;
#377 = VERTEX_POINT ( 'NONE', #234 ) ;
#378 = LINE ( 'NONE', #32, #81 ) ;
#379 = VERTEX_POINT ( 'NONE', #37 ) ;
#380 = CARTESIAN_POINT ( 'NONE',  ( 0.000000000000000000, 20.00000000000000000, 12.00000000000000355 ) ) ;
#381 = EDGE_CURVE ( 'NONE', #45, #72, #121, .T. ) ;
#382 = VERTEX_POINT ( 'NONE', #152 ) ;
#383 = DIRECTION ( 'NONE',  ( -1.000000000000000000, 0.000000000000000000, 0.000000000000000000 ) ) ;
#384 = ORIENTED_EDGE ( 'NONE', *, *, #41, .T. ) ;
#385 = VECTOR ( 'NONE', #323, 1000.000000000000000 ) ;
#386 = CARTESIAN_POINT ( 'NONE',  ( 3.800000000000025580, 5.000000000000000888, 12.00000000000000355 ) ) ;
#387 = ORIENTED_EDGE ( 'NONE', *, *, #189, .T. ) ;
#388 = LINE ( 'NONE', #489, #410 ) ;
#389 = ORIENTED_EDGE ( 'NONE', *, *, #340, .T. ) ;
#390 = DESIGN_CONTEXT ( 'detailed design', #180, 'design' ) ;
#391 = CC_DESIGN_PERSON_AND_ORGANIZATION_ASSIGNMENT ( #210, #443, ( #137 ) ) ;
#392 = APPROVAL_DATE_TIME ( #362, #69 ) ;
#393 = LINE ( 'NONE', #473, #279 ) ;
#394 = VECTOR ( 'NONE', #112, 1000.000000000000000 ) ;
#395 = APPLICATION_PROTOCOL_DEFINITION ( 'international standard', 'config_control_design', 1994, #4 ) ;
#396 = CARTESIAN_POINT ( 'NONE',  ( 0.000000000000000000, 0.000000000000000000, 0.000000000000000000 ) ) ;
#397 = APPROVAL_ROLE ( '' ) ;
#398 = CARTESIAN_POINT ( 'NONE',  ( 8.000000000000007105, 7.000000000000000000, 6.000000000000001776 ) ) ;
#399 = EDGE_CURVE ( 'NONE', #411, #278, #209, .T. ) ;
#400 = DIRECTION ( 'NONE',  ( 1.000000000000000000, 0.000000000000000000, 0.000000000000000000 ) ) ;
#401 = DIRECTION ( 'NONE',  ( 0.000000000000000000, 0.000000000000000000, 1.000000000000000000 ) ) ;
#402 = COORDINATED_UNIVERSAL_TIME_OFFSET ( 8, 0, .AHEAD. ) ;
#403 = LINE ( 'NONE', #476, #271 ) ;
#404 = PERSON_AND_ORGANIZATION ( #14, #64 ) ;
#405 = DIRECTION ( 'NONE',  ( -1.000000000000000000, 0.000000000000000000, 0.000000000000000000 ) ) ;
#406 = ADVANCED_FACE ( 'NONE', ( #272 ), #423, .T. ) ;
#407 = FACE_BOUND ( 'NONE', #307, .T. ) ;
#408 = EDGE_LOOP ( 'NONE', ( #74, #261, #21, #59, #186 ) ) ;
#409 = DIRECTION ( 'NONE',  ( 0.000000000000000000, 0.000000000000000000, 1.000000000000000000 ) ) ;
#410 = VECTOR ( 'NONE', #348, 1000.000000000000000 ) ;
#411 = VERTEX_POINT ( 'NONE', #194 ) ;
#412 = CARTESIAN_POINT ( 'NONE',  ( 8.000000000000000000, 20.00000000000000000, -20.22374841615668473 ) ) ;
#413 = VERTEX_POINT ( 'NONE', #73 ) ;
#414 = EDGE_CURVE ( 'NONE', #312, #200, #388, .T. ) ;
#415 = DIRECTION ( 'NONE',  ( 0.000000000000000000, 0.000000000000000000, -1.000000000000000000 ) ) ;
#416 = DIRECTION ( 'NONE',  ( 0.000000000000000000, 0.000000000000000000, 1.000000000000000000 ) ) ;
#417 = CIRCLE ( 'NONE', #368, 1.499999999999999556 ) ;
#418 = ORIENTED_EDGE ( 'NONE', *, *, #1, .T. ) ;
#419 = CC_DESIGN_APPROVAL ( #184, ( #248 ) ) ;
#420 = ADVANCED_FACE ( 'NONE', ( #497 ), #44, .F. ) ;
#421 = FACE_OUTER_BOUND ( 'NONE', #371, .T. ) ;
#422 = ORIENTED_EDGE ( 'NONE', *, *, #414, .F. ) ;
#423 = PLANE ( 'NONE',  #471 ) ;
#424 = ORIENTED_EDGE ( 'NONE', *, *, #49, .F. ) ;
#425 = DIRECTION ( 'NONE',  ( -0.000000000000000000, -0.000000000000000000, -1.000000000000000000 ) ) ;
#426 = ORIENTED_EDGE ( 'NONE', *, *, #216, .F. ) ;
#427 = VECTOR ( 'NONE', #166, 1000.000000000000000 ) ;
#428 = FACE_OUTER_BOUND ( 'NONE', #490, .T. ) ;
#429 = ORIENTED_EDGE ( 'NONE', *, *, #346, .F. ) ;
#430 = CC_DESIGN_DATE_AND_TIME_ASSIGNMENT ( #174, #134, ( #137 ) ) ;
#431 = DATE_AND_TIME ( #168, #289 ) ;
#432 = ORIENTED_EDGE ( 'NONE', *, *, #308, .T. ) ;
#433 = CARTESIAN_POINT ( 'NONE',  ( 8.000000000000007105, -1.200000000000000030E-05, 7.250000000000000888 ) ) ;
#434 = DIRECTION ( 'NONE',  ( 1.000000000000000000, 0.000000000000000000, 0.000000000000000000 ) ) ;
#435 = APPROVAL_PERSON_ORGANIZATION ( #439, #69, #243 ) ;
#436 = CARTESIAN_POINT ( 'NONE',  ( 0.000000000000000000, 0.000000000000000000, 0.000000000000000000 ) ) ;
#437 = ADVANCED_FACE ( 'NONE', ( #299 ), #230, .F. ) ;
#438 = LINE ( 'NONE', #396, #193 ) ;
#439 = PERSON_AND_ORGANIZATION ( #14, #64 ) ;
#440 = CARTESIAN_POINT ( 'NONE',  ( 11.00000000000000000, 1.224646799147355426E-16, 12.00000000000000355 ) ) ;
#441 = CARTESIAN_POINT ( 'NONE',  ( 0.000000000000000000, 0.000000000000000000, 0.000000000000000000 ) ) ;
#442 = CARTESIAN_POINT ( 'NONE',  ( 0.000000000000000000, 0.000000000000000000, 12.00000000000000355 ) ) ;
#443 = PERSON_AND_ORGANIZATION_ROLE ( 'classification_officer' ) ;
#444 = LINE ( 'NONE', #372, #304 ) ;
#445 = CARTESIAN_POINT ( 'NONE',  ( 3.800000000000025580, 15.00000000000000000, 12.00000000000000355 ) ) ;
#446 = CARTESIAN_POINT ( 'NONE',  ( 0.000000000000000000, 20.00000000000000000, 12.00000000000000355 ) ) ;
#447 = PLANE ( 'NONE',  #486 ) ;
#448 = EDGE_CURVE ( 'NONE', #80, #291, #488, .T. ) ;
#449 = AXIS2_PLACEMENT_3D ( 'NONE', #215, #27, #183 ) ;
#450 = CARTESIAN_POINT ( 'NONE',  ( 5.300000000000025580, 15.00000000000000000, 0.000000000000000000 ) ) ;
#451 = DIRECTION ( 'NONE',  ( 0.000000000000000000, 1.000000000000000000, 0.000000000000000000 ) ) ;
#452 = CALENDAR_DATE ( 2026, 29, 7 ) ;
#453 = FACE_BOUND ( 'NONE', #237, .T. ) ;
#454 = ORIENTED_EDGE ( 'NONE', *, *, #448, .T. ) ;
#455 = CIRCLE ( 'NONE', #449, 1.249999999999999334 ) ;
#456 = AXIS2_PLACEMENT_3D ( 'NONE', #260, #70, #146 ) ;
#457 = LINE ( 'NONE', #492, #179 ) ;
#458 = ORIENTED_EDGE ( 'NONE', *, *, #161, .T. ) ;
#459 = CARTESIAN_POINT ( 'NONE',  ( 3.800000000000025580, 5.000000000000000888, 12.00000000000000355 ) ) ;
#460 = EDGE_LOOP ( 'NONE', ( #154, #454, #34, #147 ) ) ;
#461 = CARTESIAN_POINT ( 'NONE',  ( 11.00000000000000000, 7.000000000000000000, 0.000000000000000000 ) ) ;
#462 = ADVANCED_FACE ( 'NONE', ( #428 ), #148, .F. ) ;
#463 = EDGE_LOOP ( 'NONE', ( #25, #384 ) ) ;
#464 = DATE_TIME_ROLE ( 'creation_date' ) ;
#465 = ORIENTED_EDGE ( 'NONE', *, *, #101, .F. ) ;
#466 = CARTESIAN_POINT ( 'NONE',  ( 8.000000000000007105, -1.200000000000000030E-05, 6.000000000000001776 ) ) ;
#467 = CARTESIAN_POINT ( 'NONE',  ( 0.000000000000000000, 0.000000000000000000, 12.00000000000000355 ) ) ;
#468 = EDGE_CURVE ( 'NONE', #200, #103, #132, .T. ) ;
#469 = APPROVAL_STATUS ( 'not_yet_approved' ) ;
#470 = ORIENTED_EDGE ( 'NONE', *, *, #262, .F. ) ;
#471 = AXIS2_PLACEMENT_3D ( 'NONE', #35, #342, #75 ) ;
#472 = APPLICATION_PROTOCOL_DEFINITION ( 'international standard', 'config_control_design', 1994, #180 ) ;
#473 = CARTESIAN_POINT ( 'NONE',  ( 11.00000000000000000, 7.000000000000000000, -20.22374841615668473 ) ) ;
#474 = DIRECTION ( 'NONE',  ( 0.000000000000000000, -1.000000000000000000, 0.000000000000000000 ) ) ;
#475 = PERSON_AND_ORGANIZATION ( #14, #64 ) ;
#476 = CARTESIAN_POINT ( 'NONE',  ( 11.00000000000000000, 1.224646799147355426E-16, -20.22374841615668473 ) ) ;
#477 = EDGE_CURVE ( 'NONE', #345, #413, #92, .T. ) ;
#478 = VECTOR ( 'NONE', #50, 1000.000000000000000 ) ;
#479 = CARTESIAN_POINT ( 'NONE',  ( 3.800000000000025580, 5.000000000000000888, 12.00000000000000355 ) ) ;
#480 = CARTESIAN_POINT ( 'NONE',  ( 8.000000000000007105, 0.000000000000000000, 6.000000000000001776 ) ) ;
#481 = VERTEX_POINT ( 'NONE', #204 ) ;
#482 = EDGE_CURVE ( 'NONE', #72, #379, #97, .T. ) ;
#483 = CARTESIAN_POINT ( 'NONE',  ( 2.300000000000026024, 5.000000000000000888, 12.00000000000000355 ) ) ;
#484 = AXIS2_PLACEMENT_3D ( 'NONE', #479, #409, #68 ) ;
#485 = DIRECTION ( 'NONE',  ( 0.000000000000000000, 0.000000000000000000, 1.000000000000000000 ) ) ;
#486 = AXIS2_PLACEMENT_3D ( 'NONE', #412, #373, #28 ) ;
#487 = CIRCLE ( 'NONE', #456, 1.499999999999999556 ) ;
#488 = LINE ( 'NONE', #461, #241 ) ;
#489 = CARTESIAN_POINT ( 'NONE',  ( 0.000000000000000000, 20.00000000000000000, 12.00000000000000355 ) ) ;
#490 = EDGE_LOOP ( 'NONE', ( #205, #29, #229, #36 ) ) ;
#491 = EDGE_CURVE ( 'NONE', #291, #377, #164, .T. ) ;
#492 = CARTESIAN_POINT ( 'NONE',  ( 0.000000000000000000, 20.00000000000000000, 12.00000000000000355 ) ) ;
#493 = AXIS2_PLACEMENT_3D ( 'NONE', #169, #165, #321 ) ;
#494 = APPROVAL_DATE_TIME ( #351, #33 ) ;
#495 = EDGE_LOOP ( 'NONE', ( #465, #23, #223, #424 ) ) ;
#496 = LOCAL_TIME ( 22, 2, 21.00000000000000000, #19 ) ;
#497 = FACE_OUTER_BOUND ( 'NONE', #105, .T. ) ;
#498 = EDGE_LOOP ( 'NONE', ( #343, #387, #273, #190 ) ) ;
ENDSEC;
END-ISO-10303-21;
